<?xml version="1.0" encoding="UTF-8" standalone="no"?>
<!DOCTYPE svg PUBLIC "-//W3C//DTD SVG 1.1//EN"
 "http://www.w3.org/Graphics/SVG/1.1/DTD/svg11.dtd">
<!-- Generated by graphviz version 2.40.1 (20161225.0304)
 -->
<!-- Title: %3 Pages: 1 -->
<svg width="1384pt" height="814pt"
 viewBox="0.00 0.00 1384.00 814.00" xmlns="http://www.w3.org/2000/svg" xmlns:xlink="http://www.w3.org/1999/xlink">
<g id="graph0" class="graph" transform="scale(1 1) rotate(0) translate(4 810)">
<title>%3</title>
<polygon fill="#ffffff" stroke="transparent" points="-4,4 -4,-810 1380,-810 1380,4 -4,4"/>
<g id="clust1" class="cluster">
<title>cluster.env</title>
<polygon fill="none" stroke="#000000" points="8,-485 8,-798 720,-798 720,-485 8,-485"/>
<text text-anchor="middle" x="364" y="-782.8" font-family="Times,serif" font-size="14.00" fill="#000000">Environment</text>
</g>
<g id="clust2" class="cluster">
<title>cluster.serv</title>
<polygon fill="none" stroke="#000000" points="253,-81 253,-458 663,-458 663,-81 253,-81"/>
<text text-anchor="middle" x="458" y="-442.8" font-family="Times,serif" font-size="14.00" fill="#000000">Services</text>
</g>
<g id="clust3" class="cluster">
<title>cluster.msg</title>
<polygon fill="none" stroke="#000000" points="671,-8 671,-229 1069,-229 1069,-8 671,-8"/>
<text text-anchor="middle" x="870" y="-213.8" font-family="Times,serif" font-size="14.00" fill="#000000">Messages</text>
</g>
<g id="clust4" class="cluster">
<title>cluster.pres</title>
<polygon fill="none" stroke="#000000" points="1077,-8 1077,-229 1368,-229 1368,-8 1077,-8"/>
<text text-anchor="middle" x="1222.5" y="-213.8" font-family="Times,serif" font-size="14.00" fill="#000000">Presentation</text>
</g>
<!-- Gv -->
<g id="node1" class="node">
<title>Gv</title>
<polygon fill="none" stroke="#000000" points="680.2584,-731.0493 682.4157,-731.1479 684.5507,-731.2953 686.6547,-731.4913 688.7191,-731.7353 690.7357,-732.0266 692.6966,-732.3645 694.594,-732.7479 696.4207,-733.1759 698.1701,-733.6472 699.8357,-734.1606 701.4119,-734.7147 702.8933,-735.308 704.2752,-735.9388 705.5536,-736.6054 706.7249,-737.3059 707.7863,-738.0385 708.7355,-738.8012 709.5707,-739.5918 710.291,-740.4082 710.8958,-741.2481 711.3854,-742.1093 711.7603,-742.9894 712.0218,-743.886 712.1716,-744.7965 712.2119,-745.7186 712.1453,-746.6497 711.975,-747.5873 711.7043,-748.5287 711.3369,-749.4713 710.877,-750.4127 710.3287,-751.3503 709.6965,-752.2814 708.9851,-753.2035 708.199,-754.114 707.3431,-755.0106 706.4223,-755.8907 705.4411,-756.7519 704.4044,-757.5918 703.3168,-758.4082 702.1827,-759.1988 701.0066,-759.9615 699.7924,-760.6941 698.5443,-761.3946 697.2659,-762.0612 695.9608,-762.692 694.6322,-763.2853 693.283,-763.8394 691.9162,-764.3528 690.5342,-764.8241 689.1392,-765.2521 687.7334,-765.6355 686.3186,-765.9734 684.8964,-766.2647 683.4682,-766.5087 682.0354,-766.7047 680.5991,-766.8521 679.1604,-766.9507 677.7203,-767 676.2797,-767 674.8396,-766.9507 673.4009,-766.8521 671.9646,-766.7047 670.5318,-766.5087 669.1036,-766.2647 667.6814,-765.9734 666.2666,-765.6355 664.8608,-765.2521 663.4658,-764.8241 662.0838,-764.3528 660.717,-763.8394 659.3678,-763.2853 658.0392,-762.692 656.7341,-762.0612 655.4557,-761.3946 654.2076,-760.6941 652.9934,-759.9615 651.8173,-759.1988 650.6832,-758.4082 649.5956,-757.5918 648.5589,-756.7519 647.5777,-755.8907 646.6569,-755.0106 645.801,-754.114 645.0149,-753.2035 644.3035,-752.2814 643.6713,-751.3503 643.123,-750.4127 642.6631,-749.4713 642.2957,-748.5287 642.025,-747.5873 641.8547,-746.6497 641.7881,-745.7186 641.8284,-744.7965 641.9782,-743.886 642.2397,-742.9894 642.6146,-742.1093 643.1042,-741.2481 643.709,-740.4082 644.4293,-739.5918 645.2645,-738.8012 646.2137,-738.0385 647.2751,-737.3059 648.4464,-736.6054 649.7248,-735.9388 651.1067,-735.308 652.5881,-734.7147 654.1643,-734.1606 655.8299,-733.6472 657.5793,-733.1759 659.406,-732.7479 661.3034,-732.3645 663.2643,-732.0266 665.2809,-731.7353 667.3453,-731.4913 669.4493,-731.2953 671.5843,-731.1479 673.7416,-731.0493 675.9124,-731 678.0876,-731 680.2584,-731.0493"/>
<text text-anchor="middle" x="677" y="-746.5" font-family="Arial" font-size="10.00" fill="#000000">Graphviz</text>
</g>
<!-- P3 -->
<g id="node2" class="node">
<title>P3</title>
<polygon fill="none" stroke="#000000" points="540.0955,-731.0493 542.145,-731.1479 544.1733,-731.2953 546.1721,-731.4913 548.1333,-731.7353 550.0491,-732.0266 551.9119,-732.3645 553.7145,-732.7479 555.45,-733.1759 557.1119,-733.6472 558.6943,-734.1606 560.1916,-734.7147 561.599,-735.308 562.9118,-735.9388 564.1263,-736.6054 565.2391,-737.3059 566.2474,-738.0385 567.1491,-738.8012 567.9426,-739.5918 568.6269,-740.4082 569.2015,-741.2481 569.6666,-742.1093 570.0227,-742.9894 570.2712,-743.886 570.4135,-744.7965 570.4518,-745.7186 570.3885,-746.6497 570.2267,-747.5873 569.9695,-748.5287 569.6206,-749.4713 569.1836,-750.4127 568.6627,-751.3503 568.0621,-752.2814 567.3862,-753.2035 566.6395,-754.114 565.8264,-755.0106 564.9516,-755.8907 564.0195,-756.7519 563.0346,-757.5918 562.0013,-758.4082 560.9239,-759.1988 559.8066,-759.9615 558.6531,-760.6941 557.4674,-761.3946 556.2529,-762.0612 555.013,-762.692 553.7508,-763.2853 552.4691,-763.8394 551.1706,-764.3528 549.8577,-764.8241 548.5324,-765.2521 547.1969,-765.6355 545.8528,-765.9734 544.5016,-766.2647 543.1449,-766.5087 541.7837,-766.7047 540.4192,-766.8521 539.0524,-766.9507 537.6843,-767 536.3157,-767 534.9476,-766.9507 533.5808,-766.8521 532.2163,-766.7047 530.8551,-766.5087 529.4984,-766.2647 528.1472,-765.9734 526.8031,-765.6355 525.4676,-765.2521 524.1423,-764.8241 522.8294,-764.3528 521.5309,-763.8394 520.2492,-763.2853 518.987,-762.692 517.7471,-762.0612 516.5326,-761.3946 515.3469,-760.6941 514.1934,-759.9615 513.0761,-759.1988 511.9987,-758.4082 510.9654,-757.5918 509.9805,-756.7519 509.0484,-755.8907 508.1736,-755.0106 507.3605,-754.114 506.6138,-753.2035 505.9379,-752.2814 505.3373,-751.3503 504.8164,-750.4127 504.3794,-749.4713 504.0305,-748.5287 503.7733,-747.5873 503.6115,-746.6497 503.5482,-745.7186 503.5865,-744.7965 503.7288,-743.886 503.9773,-742.9894 504.3334,-742.1093 504.7985,-741.2481 505.3731,-740.4082 506.0574,-739.5918 506.8509,-738.8012 507.7526,-738.0385 508.7609,-737.3059 509.8737,-736.6054 511.0882,-735.9388 512.401,-735.308 513.8084,-734.7147 515.3057,-734.1606 516.8881,-733.6472 518.55,-733.1759 520.2855,-732.7479 522.0881,-732.3645 523.9509,-732.0266 525.8667,-731.7353 527.8279,-731.4913 529.8267,-731.2953 531.855,-731.1479 533.9045,-731.0493 535.9667,-731 538.0333,-731 540.0955,-731.0493"/>
<text text-anchor="middle" x="537" y="-746.5" font-family="Arial" font-size="10.00" fill="#000000">Python3</text>
</g>
<!-- Gv&#45;&#45;P3 -->
<g id="edge1" class="edge">
<title>Gv&#45;&#45;P3</title>
<path fill="none" stroke="#000000" stroke-dasharray="1,5" d="M642.2478,-749C618.1027,-749 593.9576,-749 569.8125,-749"/>
</g>
<!-- Ve -->
<g id="node3" class="node">
<title>Ve</title>
<polygon fill="none" stroke="#000000" points="541.9111,-612.0493 545.1626,-612.1479 548.3806,-612.2953 551.5517,-612.4913 554.6633,-612.7353 557.7028,-613.0266 560.6581,-613.3645 563.5179,-613.7479 566.2713,-614.1759 568.908,-614.6472 571.4185,-615.1606 573.794,-615.7147 576.0268,-616.308 578.1097,-616.9388 580.0365,-617.6054 581.8019,-618.3059 583.4017,-619.0385 584.8322,-619.8012 586.0911,-620.5918 587.1768,-621.4082 588.0884,-622.2481 588.8263,-623.1093 589.3913,-623.9894 589.7855,-624.886 590.0112,-625.7965 590.072,-626.7186 589.9717,-627.6497 589.7149,-628.5873 589.3069,-629.5287 588.7533,-630.4713 588.06,-631.4127 587.2336,-632.3503 586.2808,-633.2814 585.2085,-634.2035 584.0237,-635.114 582.7337,-636.0106 581.3458,-636.8907 579.867,-637.7519 578.3045,-638.5918 576.6652,-639.4082 574.9559,-640.1988 573.1831,-640.9615 571.3532,-641.6941 569.472,-642.3946 567.5452,-643.0612 565.578,-643.692 563.5755,-644.2853 561.5421,-644.8394 559.482,-645.3528 557.399,-645.8241 555.2965,-646.2521 553.1776,-646.6355 551.0452,-646.9734 548.9015,-647.2647 546.749,-647.5087 544.5894,-647.7047 542.4246,-647.8521 540.2562,-647.9507 538.0856,-648 535.9144,-648 533.7438,-647.9507 531.5754,-647.8521 529.4106,-647.7047 527.251,-647.5087 525.0985,-647.2647 522.9548,-646.9734 520.8224,-646.6355 518.7035,-646.2521 516.601,-645.8241 514.518,-645.3528 512.4579,-644.8394 510.4245,-644.2853 508.422,-643.692 506.4548,-643.0612 504.528,-642.3946 502.6468,-641.6941 500.8169,-640.9615 499.0441,-640.1988 497.3348,-639.4082 495.6955,-638.5918 494.133,-637.7519 492.6542,-636.8907 491.2663,-636.0106 489.9763,-635.114 488.7915,-634.2035 487.7192,-633.2814 486.7664,-632.3503 485.94,-631.4127 485.2467,-630.4713 484.6931,-629.5287 484.2851,-628.5873 484.0283,-627.6497 483.928,-626.7186 483.9888,-625.7965 484.2145,-624.886 484.6087,-623.9894 485.1737,-623.1093 485.9116,-622.2481 486.8232,-621.4082 487.9089,-620.5918 489.1678,-619.8012 490.5983,-619.0385 492.1981,-618.3059 493.9635,-617.6054 495.8903,-616.9388 497.9732,-616.308 500.206,-615.7147 502.5815,-615.1606 505.092,-614.6472 507.7287,-614.1759 510.4821,-613.7479 513.3419,-613.3645 516.2972,-613.0266 519.3367,-612.7353 522.4483,-612.4913 525.6194,-612.2953 528.8374,-612.1479 532.0889,-612.0493 535.3607,-612 538.6393,-612 541.9111,-612.0493"/>
<text text-anchor="middle" x="537" y="-627.5" font-family="Arial" font-size="10.00" fill="#000000">venv:bow_math</text>
</g>
<!-- P3&#45;&#45;Ve -->
<g id="edge3" class="edge">
<title>P3&#45;&#45;Ve</title>
<path fill="none" stroke="#000000" d="M537,-730.9909C537,-714.9506 537,-694 537,-694 537,-694 537,-667.0898 537,-648.1686"/>
<text text-anchor="middle" x="551.5" y="-687.6" font-family="Arial" font-size="8.00" fill="#000000">activate</text>
</g>
<!-- sh -->
<g id="node5" class="node">
<title>sh</title>
<polygon fill="none" stroke="#00ff00" points="583.5,-529 490.5,-529 490.5,-493 583.5,-493 583.5,-529"/>
<text text-anchor="middle" x="537" y="-508.5" font-family="Arial" font-size="10.00" fill="#000000">run_bow_math.sh</text>
</g>
<!-- Ve&#45;&#45;sh -->
<g id="edge4" class="edge">
<title>Ve&#45;&#45;sh</title>
<path fill="none" stroke="#000000" d="M537,-611.9909C537,-595.9506 537,-575 537,-575 537,-575 537,-548.0898 537,-529.1686"/>
<text text-anchor="middle" x="543.5" y="-568.6" font-family="Arial" font-size="8.00" fill="#000000">run</text>
</g>
<!-- Rq -->
<g id="node4" class="node">
<title>Rq</title>
<polygon fill="none" stroke="#000000" points="436.0505,-731.0493 439.3944,-731.1479 442.7037,-731.2953 445.9649,-731.4913 449.1647,-731.7353 452.2905,-732.0266 455.3298,-732.3645 458.2708,-732.7479 461.1023,-733.1759 463.8138,-733.6472 466.3956,-734.1606 468.8386,-734.7147 471.1348,-735.308 473.2768,-735.9388 475.2583,-736.6054 477.0739,-737.3059 478.719,-738.0385 480.1902,-738.8012 481.4848,-739.5918 482.6013,-740.4082 483.5388,-741.2481 484.2976,-742.1093 484.8787,-742.9894 485.284,-743.886 485.5162,-744.7965 485.5787,-745.7186 485.4756,-746.6497 485.2115,-747.5873 484.7919,-748.5287 484.2225,-749.4713 483.5096,-750.4127 482.6598,-751.3503 481.6799,-752.2814 480.5771,-753.2035 479.3587,-754.114 478.0321,-755.0106 476.6048,-755.8907 475.084,-756.7519 473.4771,-757.5918 471.7913,-758.4082 470.0335,-759.1988 468.2104,-759.9615 466.3285,-760.6941 464.3939,-761.3946 462.4124,-762.0612 460.3894,-762.692 458.33,-763.2853 456.2388,-763.8394 454.1202,-764.3528 451.9781,-764.8241 449.8159,-765.2521 447.6369,-765.6355 445.4439,-765.9734 443.2394,-766.2647 441.0257,-766.5087 438.8049,-766.7047 436.5786,-766.8521 434.3486,-766.9507 432.1164,-767 429.8836,-767 427.6514,-766.9507 425.4214,-766.8521 423.1951,-766.7047 420.9743,-766.5087 418.7606,-766.2647 416.5561,-765.9734 414.3631,-765.6355 412.1841,-765.2521 410.0219,-764.8241 407.8798,-764.3528 405.7612,-763.8394 403.67,-763.2853 401.6106,-762.692 399.5876,-762.0612 397.6061,-761.3946 395.6715,-760.6941 393.7896,-759.9615 391.9665,-759.1988 390.2087,-758.4082 388.5229,-757.5918 386.916,-756.7519 385.3952,-755.8907 383.9679,-755.0106 382.6413,-754.114 381.4229,-753.2035 380.3201,-752.2814 379.3402,-751.3503 378.4904,-750.4127 377.7775,-749.4713 377.2081,-748.5287 376.7885,-747.5873 376.5244,-746.6497 376.4213,-745.7186 376.4838,-744.7965 376.716,-743.886 377.1213,-742.9894 377.7024,-742.1093 378.4612,-741.2481 379.3987,-740.4082 380.5152,-739.5918 381.8098,-738.8012 383.281,-738.0385 384.9261,-737.3059 386.7417,-736.6054 388.7232,-735.9388 390.8652,-735.308 393.1614,-734.7147 395.6044,-734.1606 398.1862,-733.6472 400.8977,-733.1759 403.7292,-732.7479 406.6702,-732.3645 409.7095,-732.0266 412.8353,-731.7353 416.0351,-731.4913 419.2963,-731.2953 422.6056,-731.1479 425.9495,-731.0493 429.3142,-731 432.6858,-731 436.0505,-731.0493"/>
<text text-anchor="middle" x="431" y="-746.5" font-family="Arial" font-size="10.00" fill="#000000">requirements.txt</text>
</g>
<!-- Rq&#45;&#45;Ve -->
<g id="edge2" class="edge">
<title>Rq&#45;&#45;Ve</title>
<path fill="none" stroke="#000000" d="M445.486,-731.2949C458.6409,-715.2167 476,-694 476,-694 476,-694 502.8997,-665.7773 520.973,-646.8152"/>
<text text-anchor="middle" x="486.5" y="-687.6" font-family="Arial" font-size="8.00" fill="#000000">install</text>
</g>
<!-- lg -->
<g id="node6" class="node">
<title>lg</title>
<polygon fill="none" stroke="#000000" points="358,-767 355,-771 334,-771 331,-767 304,-767 304,-731 358,-731 358,-767"/>
<text text-anchor="middle" x="331" y="-746.5" font-family="Arial" font-size="10.00" fill="#000000">logs</text>
</g>
<!-- sh&#45;&#45;lg -->
<g id="edge5" class="edge">
<title>sh&#45;&#45;lg</title>
<path fill="none" stroke="#000000" d="M521.4056,-529.0168C485.2176,-570.8263 395.4253,-674.5669 353.3826,-723.1405"/>
<polygon fill="#000000" stroke="#000000" points="350.7205,-720.868 346.8224,-730.7197 356.0133,-725.4492 350.7205,-720.868"/>
</g>
<!-- pi -->
<g id="node7" class="node">
<title>pi</title>
<polygon fill="none" stroke="#000000" points="286,-767 283,-771 262,-771 259,-767 232,-767 232,-731 286,-731 286,-767"/>
<text text-anchor="middle" x="259" y="-746.5" font-family="Arial" font-size="10.00" fill="#000000">PIDs</text>
</g>
<!-- sh&#45;&#45;pi -->
<g id="edge6" class="edge">
<title>sh&#45;&#45;pi</title>
<path fill="none" stroke="#000000" d="M515.9552,-529.0168C466.8168,-571.0849 344.441,-675.8527 288.1602,-724.0356"/>
<polygon fill="#000000" stroke="#000000" points="285.6728,-721.5575 280.3526,-730.7197 290.2252,-726.875 285.6728,-721.5575"/>
</g>
<!-- p_9 -->
<g id="node11" class="node">
<title>p_9</title>
<ellipse fill="none" stroke="#000000" cx="459" cy="-409" rx="27" ry="18"/>
<text text-anchor="middle" x="459" y="-406.5" font-family="Arial" font-size="10.00" fill="#000000">8099</text>
</g>
<!-- sh&#45;&#45;p_9 -->
<g id="edge19" class="edge">
<title>sh&#45;&#45;p_9</title>
<path fill="none" stroke="#000000" d="M523.0552,-492.7644C508.3318,-473.5108 485.3466,-443.4533 471.284,-425.0638"/>
<text text-anchor="middle" x="516.5" y="-468.6" font-family="Arial" font-size="8.00" fill="#000000">open</text>
</g>
<!-- p_8 -->
<g id="node12" class="node">
<title>p_8</title>
<ellipse fill="none" stroke="#000000" cx="537" cy="-409" rx="27" ry="18"/>
<text text-anchor="middle" x="537" y="-406.5" font-family="Arial" font-size="10.00" fill="#000000">8098</text>
</g>
<!-- sh&#45;&#45;p_8 -->
<g id="edge20" class="edge">
<title>sh&#45;&#45;p_8</title>
<path fill="none" stroke="#000000" d="M537,-492.7644C537,-474.1985 537,-445.5864 537,-427.0777"/>
<text text-anchor="middle" x="546.5" y="-468.6" font-family="Arial" font-size="8.00" fill="#000000">open</text>
</g>
<!-- p_7 -->
<g id="node13" class="node">
<title>p_7</title>
<ellipse fill="none" stroke="#000000" cx="615" cy="-409" rx="27" ry="18"/>
<text text-anchor="middle" x="615" y="-406.5" font-family="Arial" font-size="10.00" fill="#000000">8097</text>
</g>
<!-- sh&#45;&#45;p_7 -->
<g id="edge21" class="edge">
<title>sh&#45;&#45;p_7</title>
<path fill="none" stroke="#000000" d="M550.9448,-492.7644C565.6682,-473.5108 588.6534,-443.4533 602.716,-425.0638"/>
<text text-anchor="middle" x="580.5" y="-468.6" font-family="Arial" font-size="8.00" fill="#000000">open</text>
</g>
<!-- ki -->
<g id="node8" class="node">
<title>ki</title>
<text text-anchor="middle" x="187" y="-746.5" font-family="Arial" font-size="10.00" fill="#000000">kill</text>
</g>
<!-- ki&#45;&#45;sh -->
<g id="edge7" class="edge">
<title>ki&#45;&#45;sh</title>
<path fill="none" stroke="#000000" stroke-dasharray="5,2" d="M213.5942,-730.916C276.0115,-688.4722 431.8963,-582.4705 501.9437,-534.8383"/>
<polygon fill="#000000" stroke="#000000" points="504.1451,-537.5739 510.4463,-529.0565 500.2089,-531.7854 504.1451,-537.5739"/>
</g>
<!-- re -->
<g id="node9" class="node">
<title>re</title>
<text text-anchor="middle" x="115" y="-746.5" font-family="Arial" font-size="10.00" fill="#000000">restart</text>
</g>
<!-- re&#45;&#45;sh -->
<g id="edge8" class="edge">
<title>re&#45;&#45;sh</title>
<path fill="none" stroke="#000000" stroke-dasharray="5,2" d="M142.04,-733.75C213.9147,-693.214 410.0587,-582.5925 495.8766,-534.1928"/>
<polygon fill="#000000" stroke="#000000" points="497.8159,-537.1174 504.8068,-529.1564 494.3772,-531.0202 497.8159,-537.1174"/>
</g>
<!-- ru -->
<g id="node10" class="node">
<title>ru</title>
<text text-anchor="middle" x="43" y="-746.5" font-family="Arial" font-size="10.00" fill="#000000">run</text>
</g>
<!-- ru&#45;&#45;sh -->
<g id="edge9" class="edge">
<title>ru&#45;&#45;sh</title>
<path fill="none" stroke="#000000" stroke-dasharray="5,2" d="M70.2632,-735.8651C150.879,-697.0259 388.8096,-582.3954 490.2872,-533.5054"/>
<polygon fill="#000000" stroke="#000000" points="491.8934,-536.6166 499.3832,-529.1231 488.8551,-530.3103 491.8934,-536.6166"/>
</g>
<!-- API -->
<g id="node14" class="node">
<title>API</title>
<path fill="none" stroke="#00ff00" stroke-width="2" d="M331,-300C331,-300 273,-300 273,-300 267,-300 261,-294 261,-288 261,-288 261,-276 261,-276 261,-270 267,-264 273,-264 273,-264 331,-264 331,-264 337,-264 343,-270 343,-276 343,-276 343,-288 343,-288 343,-294 337,-300 331,-300"/>
<text text-anchor="start" x="269" y="-280.5" font-family="Arial" font-size="10.00" fill="#000000"> </text>
<text text-anchor="start" x="273" y="-280.5" font-family="Arial" font-weight="bold" font-size="10.00" fill="#000000">math_api.py</text>
<text text-anchor="start" x="331" y="-280.5" font-family="Arial" font-size="10.00" fill="#000000"> </text>
</g>
<!-- p_9&#45;&#45;API -->
<g id="edge14" class="edge">
<title>p_9&#45;&#45;API</title>
<path fill="none" stroke="#000000" stroke-dasharray="5,2" d="M440.5495,-395.4272C415.0115,-376.6406 372,-345 372,-345 372,-345 349.3367,-324.603 329.801,-307.0209"/>
<polygon fill="#000000" stroke="#000000" points="332.0213,-304.3104 322.2469,-300.2222 327.3385,-309.5134 332.0213,-304.3104"/>
<text text-anchor="middle" x="362.5" y="-347.6" font-family="Arial" font-size="8.00" fill="#000000">listen</text>
</g>
<!-- MSG -->
<g id="node15" class="node">
<title>MSG</title>
<path fill="none" stroke="#00ff00" stroke-width="2" d="M491,-300C491,-300 427,-300 427,-300 421,-300 415,-294 415,-288 415,-288 415,-276 415,-276 415,-270 421,-264 427,-264 427,-264 491,-264 491,-264 497,-264 503,-270 503,-276 503,-276 503,-288 503,-288 503,-294 497,-300 491,-300"/>
<text text-anchor="start" x="423" y="-280.5" font-family="Arial" font-size="10.00" fill="#000000"> </text>
<text text-anchor="start" x="427" y="-280.5" font-family="Arial" font-weight="bold" font-size="10.00" fill="#000000">math_msg.py</text>
<text text-anchor="start" x="491" y="-280.5" font-family="Arial" font-size="10.00" fill="#000000"> </text>
</g>
<!-- p_9&#45;&#45;MSG -->
<g id="edge13" class="edge">
<title>p_9&#45;&#45;MSG</title>
<path fill="none" stroke="#000000" stroke-dasharray="5,2" d="M459,-380.8253C459,-367.3038 459,-354 459,-354 459,-354 459,-321.498 459,-300.1686"/>
<polygon fill="#000000" stroke="#000000" points="455.5001,-380.9909 459,-390.9909 462.5001,-380.991 455.5001,-380.9909"/>
<text text-anchor="middle" x="465.5" y="-347.6" font-family="Arial" font-size="8.00" fill="#000000">call</text>
</g>
<!-- p_8&#45;&#45;MSG -->
<g id="edge15" class="edge">
<title>p_8&#45;&#45;MSG</title>
<path fill="none" stroke="#000000" stroke-dasharray="5,2" d="M528.2941,-391.8991C520.0746,-375.7538 509,-354 509,-354 509,-354 491.7192,-329.1157 477.4761,-308.6056"/>
<polygon fill="#000000" stroke="#000000" points="480.1959,-306.386 471.6171,-300.1686 474.4463,-310.3788 480.1959,-306.386"/>
<text text-anchor="middle" x="518.5" y="-347.6" font-family="Arial" font-size="8.00" fill="#000000">listen</text>
</g>
<!-- PRT -->
<g id="node16" class="node">
<title>PRT</title>
<path fill="none" stroke="#00ff00" stroke-width="2" d="M643,-300C643,-300 587,-300 587,-300 581,-300 575,-294 575,-288 575,-288 575,-276 575,-276 575,-270 581,-264 587,-264 587,-264 643,-264 643,-264 649,-264 655,-270 655,-276 655,-276 655,-288 655,-288 655,-294 649,-300 643,-300"/>
<text text-anchor="start" x="583" y="-280.5" font-family="Arial" font-size="10.00" fill="#000000"> </text>
<text text-anchor="start" x="587" y="-280.5" font-family="Arial" font-weight="bold" font-size="10.00" fill="#000000">math_prt.py</text>
<text text-anchor="start" x="643" y="-280.5" font-family="Arial" font-size="10.00" fill="#000000"> </text>
</g>
<!-- p_8&#45;&#45;PRT -->
<g id="edge12" class="edge">
<title>p_8&#45;&#45;PRT</title>
<path fill="none" stroke="#000000" stroke-dasharray="5,2" d="M553.1822,-383.74C564.6474,-365.8431 578,-345 578,-345 578,-345 593.3706,-318.8285 604.2981,-300.2222"/>
<polygon fill="#000000" stroke="#000000" points="550.2195,-381.8764 547.7723,-392.1848 556.1137,-385.6524 550.2195,-381.8764"/>
<text text-anchor="middle" x="571.5" y="-347.6" font-family="Arial" font-size="8.00" fill="#000000">call</text>
</g>
<!-- p_7&#45;&#45;PRT -->
<g id="edge16" class="edge">
<title>p_7&#45;&#45;PRT</title>
<path fill="none" stroke="#000000" stroke-dasharray="5,2" d="M615,-390.9909C615,-374.9506 615,-354 615,-354 615,-354 615,-330.4309 615,-310.2626"/>
<polygon fill="#000000" stroke="#000000" points="618.5001,-310.1686 615,-300.1686 611.5001,-310.1687 618.5001,-310.1686"/>
<text text-anchor="middle" x="624.5" y="-347.6" font-family="Arial" font-size="8.00" fill="#000000">listen</text>
</g>
<!-- htm -->
<g id="node28" class="node">
<title>htm</title>
<ellipse fill="none" stroke="#0000ff" cx="1305" cy="-180" rx="54.9924" ry="18"/>
<text text-anchor="middle" x="1305" y="-177.5" font-family="sans-serif" font-size="10.00" fill="#000000">bow_math.html</text>
</g>
<!-- p_7&#45;&#45;htm -->
<g id="edge38" class="edge">
<title>p_7&#45;&#45;htm</title>
<path fill="none" stroke="#000000" stroke-dasharray="5,2" d="M651.9088,-404.2562C787.8813,-386.7802 1253,-327 1253,-327 1253,-327 1284.7383,-237.2783 1298.6238,-198.0251"/>
<polygon fill="#000000" stroke="#000000" points="651.074,-400.8347 641.6018,-405.581 651.9664,-407.7775 651.074,-400.8347"/>
<text text-anchor="middle" x="1259.5" y="-320.6" font-family="Arial" font-size="8.00" fill="#000000">call</text>
</g>
<!-- API&#45;&#45;MSG -->
<g id="edge17" class="edge">
<title>API&#45;&#45;MSG</title>
<path fill="none" stroke="#000000" stroke-dasharray="5,2" d="M343.2499,-282C361.9726,-282 384.3755,-282 404.463,-282"/>
<polygon fill="#000000" stroke="#000000" points="404.7247,-285.5001 414.7247,-282 404.7247,-278.5001 404.7247,-285.5001"/>
<text text-anchor="middle" x="379" y="-287.6" font-family="Arial" font-size="8.00" fill="#000000">reply</text>
</g>
<!-- BAS -->
<g id="node17" class="node">
<title>BAS</title>
<polygon fill="none" stroke="#00ff00" points="380.5,-125 303.5,-125 303.5,-121 299.5,-121 299.5,-117 303.5,-117 303.5,-97 299.5,-97 299.5,-93 303.5,-93 303.5,-89 380.5,-89 380.5,-125"/>
<polyline fill="none" stroke="#00ff00" points="303.5,-121 307.5,-121 307.5,-117 303.5,-117 "/>
<polyline fill="none" stroke="#00ff00" points="303.5,-97 307.5,-97 307.5,-93 303.5,-93 "/>
<text text-anchor="middle" x="342" y="-104.5" font-family="Arial" font-size="10.00" fill="#000000">func_basic.py</text>
</g>
<!-- API&#45;&#45;BAS -->
<g id="edge10" class="edge">
<title>API&#45;&#45;BAS</title>
<path fill="none" stroke="#000000" d="M306.7498,-263.9337C314.7383,-233.5488 330,-175.5 330,-175.5 330,-175.5 335.2297,-145.6473 338.7842,-125.3567"/>
<text text-anchor="middle" x="318.5" y="-178.1" font-family="Arial" font-size="8.00" fill="#000000">import</text>
</g>
<!-- API_G -->
<g id="node18" class="node">
<title>API_G</title>
<polygon fill="none" stroke="#00ff00" points="706,-198 679,-180 706,-162 733,-180 706,-198"/>
<text text-anchor="middle" x="706" y="-178.1" font-family="Courier,monospace" font-size="8.00" fill="#000000">GET</text>
</g>
<!-- API&#45;&#45;API_G -->
<g id="edge28" class="edge">
<title>API&#45;&#45;API_G</title>
<path fill="none" stroke="#000000" stroke-dasharray="5,2" d="M353.0368,-269.1145C442.8679,-246.4343 625.4494,-200.337 685.9925,-185.0514"/>
<polygon fill="#000000" stroke="#000000" points="352.1755,-265.722 343.3365,-271.5636 353.8891,-272.5091 352.1755,-265.722"/>
</g>
<!-- MSG&#45;&#45;PRT -->
<g id="edge18" class="edge">
<title>MSG&#45;&#45;PRT</title>
<path fill="none" stroke="#000000" stroke-dasharray="5,2" d="M503.2861,-282C522.463,-282 545.0067,-282 564.8018,-282"/>
<polygon fill="#000000" stroke="#000000" points="564.8705,-285.5001 574.8705,-282 564.8704,-278.5001 564.8705,-285.5001"/>
<text text-anchor="middle" x="539" y="-287.6" font-family="Arial" font-size="8.00" fill="#000000">reply</text>
</g>
<!-- MSG&#45;&#45;BAS -->
<g id="edge11" class="edge">
<title>MSG&#45;&#45;BAS</title>
<path fill="none" stroke="#000000" d="M448.8218,-263.9337C431.7036,-233.5488 399,-175.5 399,-175.5 399,-175.5 374.159,-145.6473 357.275,-125.3567"/>
<text text-anchor="middle" x="387.5" y="-178.1" font-family="Arial" font-size="8.00" fill="#000000">import</text>
</g>
<!-- MSG_H -->
<g id="node19" class="node">
<title>MSG_H</title>
<polygon fill="none" stroke="#00ff00" points="779,-198 750.8471,-180 779,-162 807.1529,-180 779,-198"/>
<text text-anchor="middle" x="779" y="-178.1" font-family="Courier,monospace" font-size="8.00" fill="#000000">HEAD</text>
</g>
<!-- MSG&#45;&#45;MSG_H -->
<g id="edge29" class="edge">
<title>MSG&#45;&#45;MSG_H</title>
<path fill="none" stroke="#000000" stroke-dasharray="5,2" d="M513.0827,-264.7611C586.0191,-241.5127 712.2685,-201.2707 759.9913,-186.059"/>
<polygon fill="#000000" stroke="#000000" points="511.6234,-261.5527 503.1587,-267.9244 513.7493,-268.2221 511.6234,-261.5527"/>
</g>
<!-- MSG_G -->
<g id="node20" class="node">
<title>MSG_G</title>
<polygon fill="none" stroke="#00ff00" points="852,-198 825,-180 852,-162 879,-180 852,-198"/>
<text text-anchor="middle" x="852" y="-178.1" font-family="Courier,monospace" font-size="8.00" fill="#000000">GET</text>
</g>
<!-- MSG&#45;&#45;MSG_G -->
<g id="edge30" class="edge">
<title>MSG&#45;&#45;MSG_G</title>
<path fill="none" stroke="#000000" stroke-dasharray="5,2" d="M513.188,-267.9359C601.8652,-244.9205 773.9436,-200.2589 832.1826,-185.1434"/>
<polygon fill="#000000" stroke="#000000" points="512.1182,-264.5976 503.3182,-270.4976 513.8768,-271.3731 512.1182,-264.5976"/>
</g>
<!-- PRT_G -->
<g id="node21" class="node">
<title>PRT_G</title>
<polygon fill="none" stroke="#00ff00" points="941,-198 914,-180 941,-162 968,-180 941,-198"/>
<text text-anchor="middle" x="941" y="-178.1" font-family="Courier,monospace" font-size="8.00" fill="#000000">GET</text>
</g>
<!-- PRT&#45;&#45;PRT_G -->
<g id="edge31" class="edge">
<title>PRT&#45;&#45;PRT_G</title>
<path fill="none" stroke="#000000" stroke-dasharray="5,2" d="M664.8537,-266.4016C738.6131,-243.3235 873.3809,-201.1569 922.4792,-185.7948"/>
<polygon fill="#000000" stroke="#000000" points="663.7996,-263.064 655.301,-269.3905 665.8899,-269.7447 663.7996,-263.064"/>
</g>
<!-- PRT_P -->
<g id="node22" class="node">
<title>PRT_P</title>
<polygon fill="none" stroke="#00ff00" points="1023,-198 994.8471,-180 1023,-162 1051.1529,-180 1023,-198"/>
<text text-anchor="middle" x="1023" y="-178.1" font-family="Courier,monospace" font-size="8.00" fill="#000000">POST</text>
</g>
<!-- PRT&#45;&#45;PRT_P -->
<g id="edge32" class="edge">
<title>PRT&#45;&#45;PRT_P</title>
<path fill="none" stroke="#000000" stroke-dasharray="5,2" d="M664.9481,-269.513C754.9939,-247.0015 940.9139,-200.5215 1002.6069,-185.0983"/>
<polygon fill="#000000" stroke="#000000" points="664.0897,-266.1198 655.2372,-271.9407 665.7875,-272.9108 664.0897,-266.1198"/>
</g>
<!-- PRT&#45;&#45;htm -->
<g id="edge37" class="edge">
<title>PRT&#45;&#45;htm</title>
<path fill="none" stroke="#000000" stroke-dasharray="5,2" d="M655.0797,-276.0752C770.9679,-258.9439 1106.9468,-209.2774 1244.849,-188.8919"/>
<polygon fill="#000000" stroke="#000000" points="1245.4426,-192.3423 1254.8233,-187.4174 1244.4189,-185.4175 1245.4426,-192.3423"/>
<text text-anchor="middle" x="1103.5" y="-239.6" font-family="Arial" font-size="8.00" fill="#000000">render</text>
</g>
<!-- API_a -->
<g id="node23" class="node">
<title>API_a</title>
<polygon fill="none" stroke="#00ff00" points="750.5,-52 679.5,-52 679.5,-16 750.5,-16 750.5,-52"/>
<text text-anchor="middle" x="715" y="-32.1" font-family="Courier,monospace" font-size="8.00" fill="#000000">/api[/*/*/*]</text>
</g>
<!-- API_G&#45;&#45;API_a -->
<g id="edge22" class="edge">
<title>API_G&#45;&#45;API_a</title>
<path fill="none" stroke="#000000" d="M707.0678,-162.6786C708.7813,-134.8817 712.1294,-80.5673 713.8772,-52.2142"/>
</g>
<!-- MSG_i -->
<g id="node24" class="node">
<title>MSG_i</title>
<polygon fill="none" stroke="#00ff00" points="823,-52 769,-52 769,-16 823,-16 823,-52"/>
<text text-anchor="middle" x="796" y="-32.1" font-family="Courier,monospace" font-size="8.00" fill="#000000">/</text>
</g>
<!-- MSG_H&#45;&#45;MSG_i -->
<g id="edge23" class="edge">
<title>MSG_H&#45;&#45;MSG_i</title>
<path fill="none" stroke="#000000" d="M780.9834,-162.9662C784.2066,-135.2848 790.554,-80.7713 793.8695,-52.2971"/>
</g>
<!-- MSG_G&#45;&#45;MSG_i -->
<g id="edge24" class="edge">
<title>MSG_G&#45;&#45;MSG_i</title>
<path fill="none" stroke="#000000" d="M846.4258,-165.4672C836.1343,-138.636 814.1782,-81.3933 802.9405,-52.0948"/>
</g>
<!-- MSG_m -->
<g id="node25" class="node">
<title>MSG_m</title>
<polygon fill="none" stroke="#00ff00" points="912.5,-52 841.5,-52 841.5,-16 912.5,-16 912.5,-52"/>
<text text-anchor="middle" x="877" y="-32.1" font-family="Courier,monospace" font-size="8.00" fill="#000000">/msg[/*/*/*]</text>
</g>
<!-- MSG_G&#45;&#45;MSG_m -->
<g id="edge25" class="edge">
<title>MSG_G&#45;&#45;MSG_m</title>
<path fill="none" stroke="#000000" d="M854.771,-163.8176C859.4748,-136.3474 868.9888,-80.7853 873.9043,-52.0787"/>
</g>
<!-- PRT_i -->
<g id="node26" class="node">
<title>PRT_i</title>
<polygon fill="none" stroke="#00ff00" points="985,-52 931,-52 931,-16 985,-16 985,-52"/>
<text text-anchor="middle" x="958" y="-32.1" font-family="Courier,monospace" font-size="8.00" fill="#000000">/[*]</text>
</g>
<!-- PRT_G&#45;&#45;PRT_i -->
<g id="edge26" class="edge">
<title>PRT_G&#45;&#45;PRT_i</title>
<path fill="none" stroke="#000000" d="M942.9501,-163.2519C946.1596,-135.6883 952.5302,-80.9756 955.8599,-52.3801"/>
</g>
<!-- PRT_m -->
<g id="node27" class="node">
<title>PRT_m</title>
<polygon fill="none" stroke="#00ff00" points="1060.5,-52 1003.5,-52 1003.5,-16 1060.5,-16 1060.5,-52"/>
<text text-anchor="middle" x="1032" y="-32.1" font-family="Courier,monospace" font-size="8.00" fill="#000000">/menu[/*]</text>
</g>
<!-- PRT_P&#45;&#45;PRT_m -->
<g id="edge27" class="edge">
<title>PRT_P&#45;&#45;PRT_m</title>
<path fill="none" stroke="#000000" d="M1024.0678,-162.6786C1025.7813,-134.8817 1029.1294,-80.5673 1030.8772,-52.2142"/>
</g>
<!-- ico -->
<g id="node29" class="node">
<title>ico</title>
<ellipse fill="none" stroke="#0000ff" cx="1319" cy="-34" rx="41.4139" ry="18"/>
<text text-anchor="middle" x="1319" y="-31.5" font-family="sans-serif" font-size="10.00" fill="#000000">favicon.ico</text>
</g>
<!-- htm&#45;&#45;ico -->
<g id="edge34" class="edge">
<title>htm&#45;&#45;ico</title>
<path fill="none" stroke="#000000" d="M1306.8392,-162.0024C1308.9131,-141.7071 1312,-111.5 1312,-111.5 1312,-111.5 1315.2711,-75.2842 1317.3411,-52.3664"/>
<text text-anchor="middle" x="1318.5" y="-105.1" font-family="Arial" font-size="8.00" fill="#000000">link</text>
</g>
<!-- css -->
<g id="node30" class="node">
<title>css</title>
<ellipse fill="none" stroke="#0000ff" cx="1154" cy="-34" rx="32.2534" ry="18"/>
<text text-anchor="middle" x="1154" y="-31.5" font-family="sans-serif" font-size="10.00" fill="#000000">bow.css</text>
</g>
<!-- htm&#45;&#45;css -->
<g id="edge35" class="edge">
<title>htm&#45;&#45;css</title>
<path fill="none" stroke="#000000" d="M1280.2633,-163.7535C1245.6619,-141.028 1187,-102.5 1187,-102.5 1187,-102.5 1172.276,-71.9365 1162.4983,-51.6405"/>
<text text-anchor="middle" x="1180.5" y="-105.1" font-family="Arial" font-size="8.00" fill="#000000">link</text>
</g>
<!-- js -->
<g id="node31" class="node">
<title>js</title>
<ellipse fill="none" stroke="#0000ff" cx="1232" cy="-34" rx="27.8353" ry="18"/>
<text text-anchor="middle" x="1232" y="-31.5" font-family="sans-serif" font-size="10.00" fill="#000000">bow.js</text>
</g>
<!-- htm&#45;&#45;js -->
<g id="edge36" class="edge">
<title>htm&#45;&#45;js</title>
<path fill="none" stroke="#000000" d="M1293.8672,-162.0251C1279.6875,-139.1309 1257,-102.5 1257,-102.5 1257,-102.5 1245.8454,-71.9365 1238.4381,-51.6405"/>
<text text-anchor="middle" x="1250.5" y="-105.1" font-family="Arial" font-size="8.00" fill="#000000">link</text>
</g>
<!-- bro -->
<g id="node32" class="node">
<title>bro</title>
<polygon fill="none" stroke="#0000ff" points="1159.2968,-198 1104.7032,-198 1085.2602,-162 1178.7398,-162 1159.2968,-198"/>
<text text-anchor="middle" x="1132" y="-177.5" font-family="sans-serif" font-size="10.00" fill="#000000">Browser</text>
</g>
<!-- bro&#45;&#45;htm -->
<g id="edge33" class="edge">
<title>bro&#45;&#45;htm</title>
<path fill="none" stroke="#000000" d="M1169.168,-180C1196.1398,-180 1223.1117,-180 1250.0835,-180"/>
</g>
</g>
</svg>
