<svg xmlns="http://www.w3.org/2000/svg" xmlns:xlink="http://www.w3.org/1999/xlink" xmlns:lucid="lucid" width="1240" height="1400.22"><g transform="translate(-240 1560.2161458333333)" lucid:page-tab-id="T-hpfERyQPCa"><path d="M0 0h2720v1760H0z" fill="#fff"/><path d="M580-1329v1139" fill="none"/><path d="M580-1329v10m0 9.98v19.98m0 10v19.98m0 10v19.97m0 10v20m0 9.98v19.98m0 10v19.97m0 10v19.98m0 10v19.98m0 10v19.97m0 10v19.98m0 10v19.97m0 10v19.98m0 10v19.97m0 10v19.97m0 10v19.98m0 10v19.97m0 10v19.97m0 10v19.98m0 10v19.97m0 9.98v19.98m0 10v19.98m0 10v19.97m0 10v20m0 9.98v19.98m0 10v19.97m0 10v19.98m0 10v19.98m0 10v19.97m0 10v19.98m0 10v19.97m0 10v19.98m0 10v19.97m0 10v19.97m0 10v19.98m0 10v19.97m0 10v19.97m0 10v19.98m0 10v9.98" stroke="#3d4752" stroke-width="2" fill="none"/><path d="M581-1329h-2v-1h2z" fill="#3d4752"/><path d="M380-1300v1110" fill="none"/><path d="M380-1300v10m0 10v20m0 10v20m0 10v20m0 10v20m0 10v20m0 10v20m0 10v20m0 10v20m0 10v20m0 10v20m0 10v20m0 10v20m0 10v20m0 10v20m0 10v20m0 10v20m0 10v20m0 10v20m0 10v20m0 10v20m0 10v20m0 10v20m0 10v20m0 10v20m0 10v20m0 10v20m0 10v20m0 10v20m0 10v20m0 10v20m0 10v20m0 10v20m0 10v20m0 10v20m0 10v20m0 10v20m0 10v10" stroke="#3d4752" stroke-width="2" fill="none"/><path d="M381-1300h-2v-3h2z" fill="#3d4752"/><path d="M399.75-1460.25c0 10.9-8.84 19.75-19.75 19.75-10.9 0-19.75-8.84-19.75-19.75 0-10.9 8.84-19.75 19.75-19.75 10.9 0 19.75 8.84 19.75 19.75z" stroke="#3d4752" stroke-width="2" fill="#986daf"/><path d="M340-1480h80v158h-80z" fill="none"/><path d="M380-1440.5v55.3l40 63.2m-40-63.2l-40 63.2m0-98.75h80" stroke="#3d4752" stroke-width="2" fill="none"/><path d="M820-1329v1139" fill="none"/><path d="M820-1329v10m0 9.98v19.98m0 10v19.98m0 10v19.97m0 10v20m0 9.98v19.98m0 10v19.97m0 10v19.98m0 10v19.98m0 10v19.97m0 10v19.98m0 10v19.97m0 10v19.98m0 10v19.97m0 10v19.97m0 10v19.98m0 10v19.97m0 10v19.97m0 10v19.98m0 10v19.97m0 9.98v19.98m0 10v19.98m0 10v19.97m0 10v20m0 9.98v19.98m0 10v19.97m0 10v19.98m0 10v19.98m0 10v19.97m0 10v19.98m0 10v19.97m0 10v19.98m0 10v19.97m0 10v19.97m0 10v19.98m0 10v19.97m0 10v19.97m0 10v19.98m0 10v9.98" stroke="#3d4752" stroke-width="2" fill="none"/><path d="M821-1329h-2v-1h2zM1061-190h-2v-10h2zm0-19.98h-2v-19.98h2zm0-29.98h-2v-19.98h2zm0-29.97h-2v-19.98h2zm0-29.97h-2v-20h2zm0-29.98h-2v-19.98h2zm0-29.97h-2v-19.98h2zm0-29.97h-2v-20h2zm0-29.98h-2v-19.98h2zm0-29.97h-2v-19.98h2zm0-29.98h-2v-19.98h2zm0-29.97h-2v-19.98h2zm0-29.97h-2v-12.54h2zm0-30.38h-2v-19.57h2zm0-29.56h-2v-19.98h2zm0-42.6h-2v-7.36h2zm0-17.35h-2v-19.97h2zm0-29.96h-2v-19.98h2zm0-29.98h-2v-19.98h2zm0-29.97h-2v-20h2zm0-29.98h-2v-19.98h2zm0-29.98h-2v-19.98h2zm0-29.97h-2v-19.98h2zm0-29.97h-2v-20h2zm0-29.98h-2v-19.98h2zm0-29.97h-2v-19.98h2zm0-29.97h-2v-20h2zm0-29.98h-2v-19.98h2zm0-29.97h-2v-19.98h2zm0-29.98h-2v-19.98h2zm0-29.97h-2v-19.98h2zm0-29.97h-2v-19.98h2zm0-29.97h-2v-19.98h2zm0-29.97h-2v-19.98h2zm0-29.97h-2v-20h2zm0-30h-2v-19.97h2zm0-29.96h-2v-19.98h2zm0-29.98h-2v-19.98h2zm0-29.97h-2v-10h2z" fill="#3d4752"/><path d="M1061-1329h-2v-1h2z" fill="#3d4752"/><path d="M1300-1329v1139" fill="none"/><path d="M1300-1329v10m0 9.98v19.98m0 10v19.98m0 10v19.97m0 10v20m0 9.98v19.98m0 10v19.97m0 10v19.98m0 10v19.98m0 10v19.97m0 10v19.98m0 10v19.97m0 10v19.98m0 10v19.97m0 10v19.97m0 10v19.98m0 10v19.97m0 10v19.97m0 10v19.98m0 10v19.97m0 9.98v19.98m0 10v19.98m0 10v19.97m0 10v20m0 9.98v19.98m0 10v19.97m0 10v19.98m0 10v19.98m0 10v19.97m0 10v19.98m0 10v19.97m0 10v19.98m0 10v19.97m0 10v19.97m0 10v19.98m0 10v19.97m0 10v19.97m0 10v19.98m0 10v9.98" stroke="#3d4752" stroke-width="2" fill="none"/><path d="M1301-1329h-2v-1h2z" fill="#3d4752"/><path d="M370-1300h20v1080h-20z" stroke="#3d4752" stroke-width="2" fill="#cdbbdc"/><path d="M500-1450h160v120H500z" stroke="#3d4752" stroke-width="2" fill="#986daf"/><use xlink:href="#a" transform="matrix(1,0,0,1,505,-1445) translate(19.89697265625 59.9658203125)"/><path d="M740-1450h160v120H740z" stroke="#3d4752" stroke-width="2" fill="#986daf"/><use xlink:href="#b" transform="matrix(1,0,0,1,745,-1445) translate(24.37939453125 59.9658203125)"/><path d="M980-1450h160v120H980z" stroke="#3d4752" stroke-width="2" fill="#986daf"/><use xlink:href="#c" transform="matrix(1,0,0,1,985,-1445) translate(54.06884765625 42.1240234375)"/><use xlink:href="#d" transform="matrix(1,0,0,1,985,-1445) translate(17.59423828125 59.9658203125)"/><use xlink:href="#e" transform="matrix(1,0,0,1,985,-1445) translate(47.33203125 77.8076171875)"/><path d="M570-1220h20v220h-20zM1050-1100h20v80h-20zM810-1200h20v80h-20zM1050-920h20v80h-20z" stroke="#3d4752" stroke-width="2" fill="#cdbbdc"/><path d="M1220-1450h160v120h-160z" stroke="#3d4752" stroke-width="2" fill="#986daf"/><use xlink:href="#f" transform="matrix(1,0,0,1,1225,-1445) translate(11.60888671875 59.9658203125)"/><path d="M570-940h20v440h-20zM810-780h20v240h-20z" stroke="#3d4752" stroke-width="2" fill="#cdbbdc"/><path d="M425.24-1217.5H391v-2h34.24zm125.85 0h-16v-2h16zM391-1217.5h-1v-2h1zM566.1-1218.5l-14.27 4.64v-9.27z" fill="#3d4752"/><path d="M569.33-1218.5l-18.5 6.02v-12.02zm-16.5 3.27l10.02-3.26-10.02-3.25z" fill="#3d4752"/><use xlink:href="#g" transform="matrix(1,0,0,1,425.23671075629454,-1236.332362912735) translate(0.005000000000002558 13.88671875)"/><use xlink:href="#h" transform="matrix(1,0,0,1,425.23671075629454,-1236.332362912735) translate(34.370234375 13.88671875)"/><use xlink:href="#i" transform="matrix(1,0,0,1,425.23671075629454,-1236.332362912735) translate(18.817988281250003 31.728515625)"/><path d="M410.55-996.06h-5.38v-2h5.38zm-13.52 0h-4.07v-2h4.07zm171.97-2.9h-4.07v-2H569zm-12.2 0h-7.35v-2h7.35zM570-1000h2v1.04h-3v-2h1z" fill="#3d4752"/><path d="M410.55-1006.6v.3l-15.62 9.24 15.76 9.32-1.03 1.73L391-997.07l18.67-11.04z" fill="#3d4752"/><use xlink:href="#j" transform="matrix(1,0,0,1,410.548828125,-1007.4313093846059) translate(0 13.88671875)"/><use xlink:href="#k" transform="matrix(1,0,0,1,410.548828125,-1007.4313093846059) translate(98.736328125 13.88671875)"/><path d="M591-1200h203.67" stroke="#3d4752" stroke-width="2" fill="none"/><path d="M591-1199h-1v-2h1zM808.64-1200.8l-13.97 5.44-.54-9.25z" fill="#3d4752"/><path d="M811.87-1201l-18.12 7.08-.7-12zm-16.28 4.2l9.8-3.82-10.2-2.68z" fill="#3d4752"/><use xlink:href="#l" transform="matrix(1,0,0,1,630.3697508369958,-1239.6835937500002) translate(0.0049999999999954525 13.88671875)"/><use xlink:href="#m" transform="matrix(1,0,0,1,630.3697508369958,-1239.6835937500002) translate(74.5977734375 13.88671875)"/><use xlink:href="#n" transform="matrix(1,0,0,1,630.3697508369958,-1239.6835937500002) translate(47.597773437499995 31.728515625)"/><path d="M810.83-1119v40h.12v-41.5h-218" fill="none"/><path d="M810.83-1119v3.94m0 7.9v7.87m0 7.9v7.88m.12 1.28v-7.88m0-7.9v-7.87m0-7.87v-6.72h-1.17m-7.9 0h-7.87m-7.87 0h-7.9m-7.87 0h-7.9m-7.87 0h-7.9m-7.88 0h-7.88m-7.9 0h-7.87m-7.9 0h-7.87m-7.88 0h-7.9m-7.87 0h-7.9m-7.87 0h-7.88m-7.9 0h-7.87m-7.9 0h-7.87m-7.9 0h-7.87m-7.9 0h-3.94" stroke="#3d4752" stroke-width="2" fill="none"/><path d="M810-1120h1.83v1h-2v-3h.17zM610.7-1129.8l-15.77 9.3 15.76 9.33-1.03 1.73L591-1120.5l18.67-11.03z" fill="#3d4752"/><use xlink:href="#o" transform="matrix(1,0,0,1,711.8527118234697,-1142.3276193581573) translate(0 13.88671875)"/><use xlink:href="#p" transform="matrix(1,0,0,1,711.8527118234697,-1142.3276193581573) translate(51.7412109375 13.88671875)"/><path d="M810-400h20v80h-20z" stroke="#3d4752" stroke-width="2" fill="#cdbbdc"/><path d="M1030.76-1095.67v2h-54.53v-2zm-439.76 0h303.43v2H591zM591-1093.67h-1v-2h1zM1045.76-1094.67l-14.26 4.64v-9.27z" fill="#3d4752"/><path d="M1049-1094.67l-18.5 6.02v-12.03zm-16.5 3.26l10.03-3.27-10.03-3.26z" fill="#3d4752"/><use xlink:href="#q" transform="matrix(1,0,0,1,894.4324320299799,-1103.5875640536617) translate(0 13.88671875)"/><path d="M411.46-928.13H391v-2h20.46zM551.04-935h-2.23v-2h2.24zM391-928.13h-1v-2h1zM566.04-936l-14.27 4.64v-9.28z" fill="#3d4752"/><path d="M569.27-936l-18.5 6v-12zm-16.5 3.26L562.8-936l-10.03-3.26z" fill="#3d4752"/><use xlink:href="#r" transform="matrix(1,0,0,1,411.46400174601024,-941.486936173349) translate(0 13.88671875)"/><use xlink:href="#s" transform="matrix(1,0,0,1,411.46400174601024,-941.486936173349) translate(44.05078125 13.88671875)"/><path d="M817.05-1024.33h-7.86v-2h7.85zm-15.72 0h-7.87v-2h7.87zm-15.73 0h-7.86v-2h7.86zm-15.72 0H762v-2h7.88zm-15.73 0h-7.86v-2h7.85zm-15.73 0h-7.86v-2h7.86zm-15.72 0h-7.86v-2h7.86zm-15.73 0h-7.86v-2h7.87zm-15.72 0h-7.86v-2h7.85zm-15.73 0h-7.86v-2h7.86zm-15.72 0h-7.86v-2h7.86zm-15.73 0h-7.86v-2h7.87zm-15.72 0h-7.87v-2h7.87zm-15.73 0h-7.86v-2h7.86zm-15.72 0h-3.93v-2h3.93zm452.1 0h-3.93v-2h3.93zm-11.8 0h-7.86v-2h7.87zm-15.72 0h-7.86v-2h7.86zm-157.25 0h-7.87v-2h7.87zm-15.73 0h-7.86v-2h7.86zm-15.72 0h-7.87v-2h7.88zm172.98 0h-2.3v-2h2.3zM1050-1024.33h-1v-2h1z" fill="#3d4752"/><path d="M610.7-1034.65l-15.77 9.32 15.76 9.32-1.03 1.7-18.67-11.03 18.67-11.04z" fill="#3d4752"/><use xlink:href="#j" transform="matrix(1,0,0,1,864.548828110863,-1034.2542328213383) translate(0 13.88671875)"/><use xlink:href="#k" transform="matrix(1,0,0,1,864.548828110863,-1034.2542328213383) translate(98.736328125 13.88671875)"/><path d="M591-914.33h261.46v2H591zm439.76 2h-15.22v-2h15.22zM591-912.33h-1v-2h1zM1045.76-913.33l-14.26 4.63v-9.27z" fill="#3d4752"/><path d="M1049-913.33l-18.5 6v-12.02zm-16.5 3.26l10.03-3.26-10.03-3.26z" fill="#3d4752"/><use xlink:href="#t" transform="matrix(1,0,0,1,852.4628676943368,-922.2542327809347) translate(0 13.88671875)"/><use xlink:href="#s" transform="matrix(1,0,0,1,852.4628676943368,-922.2542327809347) translate(69.7763671875 13.88671875)"/><path d="M637.52-773.67H591v-2h46.52zm153.24 0h-28.28v-2h28.28zM591-773.67h-1v-2h1zM805.76-774.67l-14.26 4.64v-9.27z" fill="#3d4752"/><path d="M809-774.67l-18.5 6.02v-12.03zm-16.5 3.26l10.03-3.27-10.03-3.26z" fill="#3d4752"/><use xlink:href="#u" transform="matrix(1,0,0,1,637.52294921875,-783.5875651041666) translate(0 13.88671875)"/><use xlink:href="#v" transform="matrix(1,0,0,1,637.52294921875,-783.5875651041666) translate(41.73046875 13.88671875)"/><use xlink:href="#w" transform="matrix(1,0,0,1,637.52294921875,-783.5875651041666) translate(85.4560546875 13.88671875)"/><path d="M809-539.17h-3.9v-2h3.9zm-11.74 0h-7.82v-2h7.82zm-15.64 0h-7.83v-2h7.82zm-15.65 0h-3.1v-2h3.1zm-128.84-3.03H636v-2h1.13zm-8.96 0h-7.82v-2h7.82zm-15.65 0h-7.82v-2h7.82zm-15.64 0h-3.92v-2h3.92zM810-540h2v.83h-3v-2h1z" fill="#3d4752"/><path d="M610.7-552.52l-15.77 9.32 15.76 9.32-1.03 1.73L591-543.2l18.67-11.04z" fill="#3d4752"/><use xlink:href="#x" transform="matrix(1,0,0,1,700,-552.2532706219948) translate(0 16.458333333333336)"/><use xlink:href="#r" transform="matrix(1,0,0,1,637.1318359375,-559.5221508303282) translate(0.005000000000002558 13.88671875)"/><use xlink:href="#y" transform="matrix(1,0,0,1,637.1318359375,-559.5221508303282) translate(44.05578125 13.88671875)"/><use xlink:href="#i" transform="matrix(1,0,0,1,637.1318359375,-559.5221508303282) translate(26.758906250000003 31.728515625)"/><path d="M877.52-755H831v-2h46.52zm153.24-.92h-28.28v-2h28.28zM831-755h-1v-2h1zM1045.76-756.92l-14.26 4.63v-9.26z" fill="#3d4752"/><path d="M1049-756.92l-18.5 6v-12zm-16.5 3.26l10.03-3.26-10.03-3.26z" fill="#3d4752"/><use xlink:href="#u" transform="matrix(1,0,0,1,877.52294921875,-765.3818921282029) translate(0 13.88671875)"/><use xlink:href="#v" transform="matrix(1,0,0,1,877.52294921875,-765.3818921282029) translate(41.73046875 13.88671875)"/><use xlink:href="#w" transform="matrix(1,0,0,1,877.52294921875,-765.3818921282029) translate(85.4560546875 13.88671875)"/><path d="M1049.28-678h-3.92v-2h3.92zm-11.75 0h-7.83v-2h7.83zm-15.67 0h-7.83v-2h7.83zm-15.66 0h-7.83v-2h7.83zm-122.33-3h-7.83v-2h7.83zm-15.66 0h-7.82v-2h7.83zm-15.65 0h-7.84v-2h7.85zm-15.67 0h-3.92v-2h3.92zM1052.28-678h-3v-2h3z" fill="#3d4752"/><path d="M850.7-691.3l-15.77 9.3 15.76 9.33-1.03 1.72L831-682l18.67-11.03z" fill="#3d4752"/><use xlink:href="#z" transform="matrix(1,0,0,1,885.2073337849903,-689.4161868043168) translate(0 13.88671875)"/><use xlink:href="#A" transform="matrix(1,0,0,1,885.2073337849903,-689.4161868043168) translate(62.173828125 13.88671875)"/><path d="M1050-760h20v80h-20z" stroke="#3d4752" stroke-width="2" fill="#cdbbdc"/><path d="M928.25-632.33H831v-2h97.25zm342.5 0h-79v-2h79zM831-632.33h-1v-2h1zM1285.76-633.33l-14.26 4.63v-9.27z" fill="#3d4752"/><path d="M1289-633.33l-18.5 6v-12.02zm-16.5 3.26l10.03-3.26-10.03-3.26z" fill="#3d4752"/><use xlink:href="#z" transform="matrix(1,0,0,1,928.24755859375,-642.2542317713852) translate(0 13.88671875)"/><use xlink:href="#B" transform="matrix(1,0,0,1,928.24755859375,-642.2542317713852) translate(62.173828125 13.88671875)"/><use xlink:href="#C" transform="matrix(1,0,0,1,928.24755859375,-642.2542317713852) translate(104.3173828125 13.88671875)"/><use xlink:href="#D" transform="matrix(1,0,0,1,928.24755859375,-642.2542317713852) translate(191.2763671875 13.88671875)"/><path d="M570-420h20v120h-20z" stroke="#3d4752" stroke-width="2" fill="#cdbbdc"/><path d="M571.4-499v-1.1H392.96" fill="none"/><path d="M571.4-499v-1.1h-2.97m-8.16 0h-8.16m-8.15 0h-8.16m-8.17 0h-8.16m-8.17 0h-8.16m-8.16 0h-8.16m-8.16 0h-8.16m-8.16 0h-8.17m-8.16 0h-8.15m-8.16 0h-8.17m-8.16 0h-8.16m-8.15 0h-4.1" stroke="#3d4752" stroke-width="2" fill="none"/><path d="M574.46-499.76l-.16 2-3-.24.17-2zM410.7-509.43l-15.77 9.32 15.76 9.3-1.03 1.73L391-500.1l18.67-11.06z" fill="#3d4752"/><use xlink:href="#r" transform="matrix(1,0,0,1,426.6292202716019,-539.7979797500003) translate(0.005000000000002558 13.88671875)"/><use xlink:href="#y" transform="matrix(1,0,0,1,426.6292202716019,-539.7979797500003) translate(44.05578125 13.88671875)"/><use xlink:href="#i" transform="matrix(1,0,0,1,426.6292202716019,-539.7979797500003) translate(26.758906250000003 31.728515625)"/><path d="M1049-841.57h-3.94v-2h3.94zm-11.82 0h-7.87v-2h7.88zm-15.75 0h-7.88v-2h7.88zm-149.45 0h-.2v-2h.2zm-8.1 0h-7.87v-2h7.9zm-15.74 0h-7.88v-2h7.88zm-15.76 0h-7.87v-2h7.88zm173.3 0h-5.1v-2h5.1zm-188.22-.84h-7.88v-2h7.88zm-15.75 0h-7.87v-2h7.88zm-15.75 0h-7.88v-2h7.88zm-15.75 0h-7.88v-2h7.88zm-15.76 0h-7.87v-2h7.87zm-15.75 0h-7.9v-2h7.9zm-15.76 0h-7.88v-2h7.88zm-15.76 0h-7.88v-2h7.88zm-15.75 0h-7.88v-2h7.88zm-15.76 0h-7.87v-2h7.87zm-15.75 0h-7.88v-2h7.88zm-15.75 0h-7.88v-2h7.87zm-15.76 0h-7.87v-2h7.88zm-15.74 0h-7.88v-2h7.88zm-15.76 0h-3.94v-2h3.94zM1050-841.57h-1v-2h1z" fill="#3d4752"/><path d="M610.7-852.73l-15.77 9.32 15.76 9.32-1.03 1.72L591-843.4l18.67-11.05z" fill="#3d4752"/><use xlink:href="#o" transform="matrix(1,0,0,1,871.9817377568412,-851.4945790484978) translate(0 13.88671875)"/><use xlink:href="#p" transform="matrix(1,0,0,1,871.9817377568412,-851.4945790484978) translate(51.7412109375 13.88671875)"/><path d="M809-323.6h-3.86v-2H809zm-11.58 0h-7.72v-2h7.72zm-15.44 0h-7.72v-2h7.72zm-15.44 0h-7.72v-2h7.72zm-123.52-.1h-7.6v-2h7.6zm-15.32 0h-7.72v-2h7.72zm-15.44 0h-7.72v-2h7.72zm-15.44 0h-3.86v-2h3.86zM810-323.6h-1v-2h1z" fill="#3d4752"/><path d="M610.7-334.02l-15.77 9.32 15.76 9.32-1.03 1.72L591-324.7l18.67-11.05z" fill="#3d4752"/><use xlink:href="#u" transform="matrix(1,0,0,1,643.0205078125,-342.4904294073877) translate(0.005000000000002558 13.88671875)"/><use xlink:href="#E" transform="matrix(1,0,0,1,643.0205078125,-342.4904294073877) translate(41.73546875 13.88671875)"/><use xlink:href="#F" transform="matrix(1,0,0,1,643.0205078125,-342.4904294073877) translate(2.2110546875000026 31.728515625)"/><use xlink:href="#G" transform="matrix(1,0,0,1,643.0205078125,-342.4904294073877) translate(35.460078125 31.728515625)"/><path d="M569-300.4h-4.04v-2H569zm-12.1 0h-8.1v-2h8.1zm-16.16 0h-3.76v-2h3.76zM423.02-302h-1.8v-2h1.8zm-9.87 0h-8.07v-2h8.07zm-16.15 0h-4.04v-2H397zM570-300.4h-1v-2h1z" fill="#3d4752"/><path d="M410.7-312.34l-15.77 9.32 15.76 9.32-1.03 1.72L391-303.02l18.67-11.05z" fill="#3d4752"/><g><use xlink:href="#u" transform="matrix(1,0,0,1,423.0205078125,-320.050711719326) translate(0.005000000000002558 13.88671875)"/><use xlink:href="#H" transform="matrix(1,0,0,1,423.0205078125,-320.050711719326) translate(41.73546875 13.88671875)"/><use xlink:href="#F" transform="matrix(1,0,0,1,423.0205078125,-320.050711719326) translate(2.2110546875000026 31.728515625)"/><use xlink:href="#G" transform="matrix(1,0,0,1,423.0205078125,-320.050711719326) translate(35.460078125 31.728515625)"/></g><path d="M591-382.67h114.5V-400H769v17.33h21.76" stroke="#3d4752" stroke-width="2" fill="none"/><path d="M591-381.67h-1v-2h1zM805.76-382.67l-14.26 4.64v-9.27z" fill="#3d4752"/><path d="M809-382.67l-18.5 6.02v-12.03zm-16.5 3.26l10.03-3.27-10.03-3.26z" fill="#3d4752"/><g><use xlink:href="#I" transform="matrix(1,0,0,1,657.688340866418,-380.2288695821039) translate(0 13.88671875)"/><use xlink:href="#J" transform="matrix(1,0,0,1,657.688340866418,-380.2288695821039) translate(28.828125 13.88671875)"/></g><path d="M1289-559.63h-3.94v-2h3.94zm-11.82 0h-7.88v-2h7.88zm-15.76 0h-7.88v-2h7.88zm-15.77 0h-7.88v-2h7.88zm-15.76 0h-7.9v-2h7.9zm-15.77 0h-7.88v-2h7.88zm-15.76 0h-7.88v-2h7.87zm-15.76 0h-7.87v-2h7.88zm-15.75 0h-5.23v-2h5.23zm-208.47-1.06h-3.26v-2h3.26zm-11.14 0h-7.88v-2h7.88zm-15.76 0h-7.9v-2h7.9zm-15.77 0h-7.87v-2h7.88zm-15.75 0h-7.88v-2h7.88zm-15.76 0h-7.9v-2h7.9zm-15.77 0h-7.88v-2h7.88zm-15.76 0h-7.88v-2h7.87zm-15.77 0h-3.94v-2h3.94zM1290-559.63h-1v-2h1z" fill="#3d4752"/><path d="M850.7-571l-15.77 9.3 15.76 9.33-1.03 1.72L831-561.7l18.67-11.03z" fill="#3d4752"/><g><use xlink:href="#r" transform="matrix(1,0,0,1,958.380859375,-570.0824710693462) translate(0 13.88671875)"/><use xlink:href="#C" transform="matrix(1,0,0,1,958.380859375,-570.0824710693462) translate(44.05078125 13.88671875)"/><use xlink:href="#D" transform="matrix(1,0,0,1,958.380859375,-570.0824710693462) translate(131.009765625 13.88671875)"/></g><path d="M1290-638.67h20v80h-20z" stroke="#3d4752" stroke-width="2" fill="#cdbbdc"/><path d="M260-1540h440v20l-10 10H260z" fill="#986daf"/><path d="M260-1540h1200v1360H260z" stroke="#3d4752" stroke-width="2" fill="none"/><path d="M700-1540v20l-10 10H260" stroke="#3d4752" stroke-width="2" fill="#986daf"/><g><use xlink:href="#K" transform="matrix(1,0,0,1,268,-1540) translate(0 22.356770833333336)"/><use xlink:href="#L" transform="matrix(1,0,0,1,268,-1540) translate(64.34895833333334 22.356770833333336)"/><use xlink:href="#M" transform="matrix(1,0,0,1,268,-1540) translate(126.78385416666669 22.356770833333336)"/></g><path d="M280-800h160v20l-10 10H280z" fill="#986daf"/><path d="M440-800v20l-10 10H280" stroke="#3d4752" stroke-width="2" fill="none"/><path d="M280-800h1120v580H280zM280-443.08h20m15 0h20m15 0h20m15 0h20m15 0h20m15 0h20m15 0h20m15 0h20m15 0h20m15 0h20m15 0h20m15 0h20m15 0h20m15 0h20m15 0h20m15 0h20m15 0h20m15 0h20m15 0h20m15 0h20m15 0h20m15 0h20m15 0h20m15 0h20m15 0h20m15 0h20m15 0h20m15 0h20m15 0h20m15 0h20m15 0h20m15 0h20" stroke="#3d4752" stroke-width="2" fill="none"/><g><use xlink:href="#N" transform="matrix(1,0,0,1,288,-800) translate(54.18359375 22.356770833333336)"/></g><g><use xlink:href="#O" transform="matrix(1,0,0,1,292,-762) translate(0 19.90451388888889)"/><use xlink:href="#P" transform="matrix(1,0,0,1,292,-762) translate(93.75 19.90451388888889)"/><use xlink:href="#Q" transform="matrix(1,0,0,1,292,-762) translate(199.14930555555554 19.90451388888889)"/></g><g><use xlink:href="#R" transform="matrix(1,0,0,1,292,-435.07692307692304) translate(0 19.90451388888889)"/></g><defs><path fill="#fff" d="M452 0H163v-278h289V0zM163-1094h289v278H163v-278" id="S"/><path fill="#fff" d="M1178 0L926-761 675 0H408L27-1489h279L561-392l260-788h212l259 790 276-1099h257L1446 0h-268" id="T"/><path fill="#fff" d="M94-548c0-302 191-568 483-568 311 0 493 270 482 633H370c7 207 93 311 256 311 93 0 196-46 308-137l103 144C907-40 760 22 595 22 293 22 94-237 94-548zm282-120h403c-18-170-85-255-202-255s-184 85-201 255" id="U"/><path fill="#fff" d="M1113-589c0 325-126 613-421 611-108 0-198-32-271-96V0H168v-1580h263v560c76-64 164-96 265-96 269 0 417 244 417 527zM431-818v553c64 56 127 84 189 84 145 0 218-134 218-402 0-214-68-321-203-321-67 0-135 29-204 86" id="V"/><path fill="#fff" d="M919-805c192 25 318 168 317 382 0 282-182 423-545 423H205v-1489h394c214 0 356 50 427 149 39 55 59 132 59 229 0 134-55 236-166 306zM695-219c182-5 263-51 263-220 0-149-88-223-263-223H478v443h217zM478-881h163c121 0 181-69 181-207 0-121-70-182-211-182H478v389" id="W"/><path fill="#fff" d="M431-770V0H168v-1094h263v110c156-133 232-175 396-74l-84 220c-129-52-218-25-312 68" id="X"/><path fill="#fff" d="M578-1116c196 0 337 93 423 279 40 87 60 183 60 290 0 225-77 390-230 494-74 50-158 75-253 75-197 0-338-93-424-279-40-87-60-183-60-290 0-226 77-391 231-495 73-49 158-74 253-74zm0 194c-139 0-208 125-208 375s69 375 208 375c138 0 207-125 207-375s-69-375-207-375" id="Y"/><path fill="#fff" d="M980 0L767-713 556 0H350L25-1094h259l176 672 197-672h231l200 672 173-672h248L1186 0H980" id="Z"/><path fill="#fff" d="M925-326c0 213-197 348-437 348C341 22 194-16 47-93l93-183c121 69 236 103 345 103s164-42 164-127c0-41-24-75-72-100-19-10-61-25-126-44-165-49-270-109-315-179-27-41-40-94-40-158 0-210 193-335 432-335 111 0 229 34 354 103l-83 176c-101-56-191-84-271-84-107 0-161 40-161 121 0 37 23 66 70 89 16 12 285 99 327 123 105 60 161 144 161 262" id="aa"/><g id="a"><use transform="matrix(0.0087890625,0,0,0.0087890625,0,0)" xlink:href="#S"/><use transform="matrix(0.0087890625,0,0,0.0087890625,5.4052734375,0)" xlink:href="#T"/><use transform="matrix(0.0087890625,0,0,0.0087890625,21.1201171875,0)" xlink:href="#U"/><use transform="matrix(0.0087890625,0,0,0.0087890625,31.25390625,0)" xlink:href="#V"/><use transform="matrix(0.0087890625,0,0,0.0087890625,41.8623046875,0)" xlink:href="#W"/><use transform="matrix(0.0087890625,0,0,0.0087890625,53.595703125,0)" xlink:href="#X"/><use transform="matrix(0.0087890625,0,0,0.0087890625,60.4248046875,0)" xlink:href="#Y"/><use transform="matrix(0.0087890625,0,0,0.0087890625,70.576171875,0)" xlink:href="#Z"/><use transform="matrix(0.0087890625,0,0,0.0087890625,84.05859375,0)" xlink:href="#aa"/><use transform="matrix(0.0087890625,0,0,0.0087890625,92.8828125,0)" xlink:href="#U"/><use transform="matrix(0.0087890625,0,0,0.0087890625,103.0166015625,0)" xlink:href="#X"/></g><path fill="#fff" d="M491-632h326l-163-487zM1028 0L887-418H421L279 0H11l527-1489h248L1312 0h-284" id="ab"/><path fill="#fff" d="M690-1116c279 0 423 232 423 527 0 261-67 439-196 539C782 54 551 41 431-69v481H168v-1506h253v93c71-77 160-115 269-115zM431-810v545c64 56 127 84 189 84 145 0 218-134 218-402 0-214-68-321-203-321-71 0-139 31-204 94" id="ac"/><path fill="#fff" d="M446 22C216 22 155-90 155-336v-1244h263v1196c0 75 6 126 18 153 27 62 110 61 177 31l67 172C603 5 525 22 446 22" id="ad"/><path fill="#fff" d="M431-1094V0H168v-1094h263zm0-190H168v-296h263v296" id="ae"/><path fill="#fff" d="M94-547c0-294 207-569 494-569 131 0 260 50 386 150L872-811c-96-74-188-111-277-112-163-2-225 186-225 376 0 251 82 377 246 377 81 0 168-36 260-107l103 137C862-32 733 22 593 22 292 22 94-208 94-547" id="af"/><path fill="#fff" d="M711-687c-7-170-35-229-188-230-74 0-147 18-220 53l-88-179c111-51 229-76 353-76 303 0 405 148 405 459V0H717v-81C651-13 566 21 461 21 236 21 81-120 81-346c0-158 85-260 254-311 103-31 245-40 376-30zM326-329c0 101 84 155 189 155 91 0 157-36 196-109v-226c-23-4-49-6-78-6-205 0-307 62-307 186" id="ag"/><path fill="#fff" d="M503-384c-2 129 8 204 107 204 41 0 91-13 150-38l66 171C737-1 639 22 533 22c-230-2-293-122-293-358v-559H42v-199h198v-395h263v395h265v199H503v511" id="ah"/><path fill="#fff" d="M783-1116c173 0 283 89 283 264V0H803v-754c0-92-46-138-139-138-73 0-151 30-233 91V0H168v-1094h263v93c117-77 234-115 352-115" id="ai"/><g id="b"><use transform="matrix(0.0087890625,0,0,0.0087890625,0,0)" xlink:href="#S"/><use transform="matrix(0.0087890625,0,0,0.0087890625,5.4052734375,0)" xlink:href="#ab"/><use transform="matrix(0.0087890625,0,0,0.0087890625,17.314453125,0)" xlink:href="#ac"/><use transform="matrix(0.0087890625,0,0,0.0087890625,27.9228515625,0)" xlink:href="#ac"/><use transform="matrix(0.0087890625,0,0,0.0087890625,38.53125,0)" xlink:href="#ad"/><use transform="matrix(0.0087890625,0,0,0.0087890625,44.2265625,0)" xlink:href="#ae"/><use transform="matrix(0.0087890625,0,0,0.0087890625,49.4912109375,0)" xlink:href="#af"/><use transform="matrix(0.0087890625,0,0,0.0087890625,58.095703125,0)" xlink:href="#ag"/><use transform="matrix(0.0087890625,0,0,0.0087890625,68.0009765625,0)" xlink:href="#ah"/><use transform="matrix(0.0087890625,0,0,0.0087890625,75.1025390625,0)" xlink:href="#ae"/><use transform="matrix(0.0087890625,0,0,0.0087890625,80.3671875,0)" xlink:href="#Y"/><use transform="matrix(0.0087890625,0,0,0.0087890625,90.5185546875,0)" xlink:href="#ai"/></g><g id="c"><use transform="matrix(0.0087890625,0,0,0.0087890625,0,0)" xlink:href="#S"/><use transform="matrix(0.0087890625,0,0,0.0087890625,5.4052734375,0)" xlink:href="#T"/><use transform="matrix(0.0087890625,0,0,0.0087890625,21.1201171875,0)" xlink:href="#U"/><use transform="matrix(0.0087890625,0,0,0.0087890625,31.25390625,0)" xlink:href="#V"/></g><path fill="#fff" d="M437 22c-177 0-283-91-283-265v-851h263v755c0 91 46 137 139 137 75 0 152-32 233-95v-797h263V0H789v-93C670-16 552 22 437 22" id="aj"/><path fill="#fff" d="M784-1116c178 0 282 88 282 264V0H803v-754c0-92-46-138-138-138-74 0-152 32-234 95V0H168v-1580h263v579c117-77 234-115 353-115" id="ak"/><path fill="#fff" d="M913-199V0H57v-145l540-750H116v-199h789v167L377-199h536" id="al"/><g id="d"><use transform="matrix(0.0087890625,0,0,0.0087890625,0,0)" xlink:href="#ab"/><use transform="matrix(0.0087890625,0,0,0.0087890625,11.9091796875,0)" xlink:href="#aj"/><use transform="matrix(0.0087890625,0,0,0.0087890625,22.6318359375,0)" xlink:href="#ah"/><use transform="matrix(0.0087890625,0,0,0.0087890625,29.7333984375,0)" xlink:href="#ak"/><use transform="matrix(0.0087890625,0,0,0.0087890625,40.4560546875,0)" xlink:href="#Y"/><use transform="matrix(0.0087890625,0,0,0.0087890625,50.607421875,0)" xlink:href="#X"/><use transform="matrix(0.0087890625,0,0,0.0087890625,57.796875,0)" xlink:href="#ae"/><use transform="matrix(0.0087890625,0,0,0.0087890625,63.0615234375,0)" xlink:href="#al"/><use transform="matrix(0.0087890625,0,0,0.0087890625,71.666015625,0)" xlink:href="#ag"/><use transform="matrix(0.0087890625,0,0,0.0087890625,81.5712890625,0)" xlink:href="#ah"/><use transform="matrix(0.0087890625,0,0,0.0087890625,88.6728515625,0)" xlink:href="#ae"/><use transform="matrix(0.0087890625,0,0,0.0087890625,93.9375,0)" xlink:href="#Y"/><use transform="matrix(0.0087890625,0,0,0.0087890625,104.0888671875,0)" xlink:href="#ai"/></g><path fill="#fff" d="M183-342c139 97 272 144 401 141 177-5 266-73 266-205 0-83-46-143-137-186-66-31-351-127-423-171-120-74-184-178-184-324 0-181 82-309 250-380 237-100 547-49 724 90l-107 195c-117-70-238-105-361-105-149 0-223 63-223 189 0 81 64 140 191 179 19 5 54 16 105 32 192 62 321 144 388 246 41 63 61 141 61 234 0 173-87 302-265 376C603 79 286 20 77-135" id="am"/><path fill="#fff" d="M452 0L25-1094h272l252 709 263-709h249L634 0H452" id="an"/><g id="e"><use transform="matrix(0.0087890625,0,0,0.0087890625,0,0)" xlink:href="#am"/><use transform="matrix(0.0087890625,0,0,0.0087890625,10.7841796875,0)" xlink:href="#U"/><use transform="matrix(0.0087890625,0,0,0.0087890625,20.91796875,0)" xlink:href="#X"/><use transform="matrix(0.0087890625,0,0,0.0087890625,28.4677734375,0)" xlink:href="#an"/><use transform="matrix(0.0087890625,0,0,0.0087890625,38.0126953125,0)" xlink:href="#U"/><use transform="matrix(0.0087890625,0,0,0.0087890625,48.146484375,0)" xlink:href="#X"/></g><path fill="#fff" d="M102-744c-7-402 254-768 642-768 139 0 270 41 393 124l-138 175c-77-55-161-82-252-82-144 0-247 85-308 256-31 85-46 183-46 295 0 228 53 391 167 482 144 115 312 73 466-35l124 172C930 61 588 78 365-105 204-237 107-456 102-744" id="ao"/><g id="f"><use transform="matrix(0.0087890625,0,0,0.0087890625,0,0)" xlink:href="#S"/><use transform="matrix(0.0087890625,0,0,0.0087890625,5.4052734375,0)" xlink:href="#ao"/><use transform="matrix(0.0087890625,0,0,0.0087890625,15.5126953125,0)" xlink:href="#Y"/><use transform="matrix(0.0087890625,0,0,0.0087890625,25.6640625,0)" xlink:href="#ai"/><use transform="matrix(0.0087890625,0,0,0.0087890625,36.38671875,0)" xlink:href="#ah"/><use transform="matrix(0.0087890625,0,0,0.0087890625,43.48828125,0)" xlink:href="#U"/><use transform="matrix(0.0087890625,0,0,0.0087890625,53.6220703125,0)" xlink:href="#ai"/><use transform="matrix(0.0087890625,0,0,0.0087890625,64.3447265625,0)" xlink:href="#ah"/><use transform="matrix(0.0087890625,0,0,0.0087890625,71.4462890625,0)" xlink:href="#am"/><use transform="matrix(0.0087890625,0,0,0.0087890625,82.23046875,0)" xlink:href="#U"/><use transform="matrix(0.0087890625,0,0,0.0087890625,92.3642578125,0)" xlink:href="#X"/><use transform="matrix(0.0087890625,0,0,0.0087890625,99.9140625,0)" xlink:href="#an"/><use transform="matrix(0.0087890625,0,0,0.0087890625,109.458984375,0)" xlink:href="#U"/><use transform="matrix(0.0087890625,0,0,0.0087890625,119.5927734375,0)" xlink:href="#X"/></g><path fill="#3d4752" d="M750-1295c-235 0-357 269-357 551 0 242 64 406 189 495 115 82 270 77 380-7v-383H663v-213h557v693C1004 37 655 95 402-79 224-202 101-447 102-744s130-540 310-667c233-164 595-116 777 70l-135 170c-93-83-195-124-304-124" id="ap"/><path fill="#3d4752" d="M94-548c0-302 191-568 483-568 311 0 493 270 482 633H370c7 207 93 311 256 311 93 0 196-46 308-137l103 144C907-40 760 22 595 22 293 22 94-237 94-548zm282-120h403c-18-170-85-255-202-255s-184 85-201 255" id="aq"/><path fill="#3d4752" d="M503-384c-2 129 8 204 107 204 41 0 91-13 150-38l66 171C737-1 639 22 533 22c-230-2-293-122-293-358v-559H42v-199h198v-395h263v395h265v199H503v511" id="ar"/><g id="g"><use transform="matrix(0.0087890625,0,0,0.0087890625,0,0)" xlink:href="#ap"/><use transform="matrix(0.0087890625,0,0,0.0087890625,11.8564453125,0)" xlink:href="#aq"/><use transform="matrix(0.0087890625,0,0,0.0087890625,21.990234375,0)" xlink:href="#ar"/></g><path fill="#3d4752" d="M980 0L767-713 556 0H350L25-1094h259l176 672 197-672h231l200 672 173-672h248L1186 0H980" id="as"/><path fill="#3d4752" d="M1113-589c0 325-126 613-421 611-108 0-198-32-271-96V0H168v-1580h263v560c76-64 164-96 265-96 269 0 417 244 417 527zM431-818v553c64 56 127 84 189 84 145 0 218-134 218-402 0-214-68-321-203-321-67 0-135 29-204 86" id="at"/><path fill="#3d4752" d="M690-1116c279 0 423 232 423 527 0 261-67 439-196 539C782 54 551 41 431-69v481H168v-1506h253v93c71-77 160-115 269-115zM431-810v545c64 56 127 84 189 84 145 0 218-134 218-402 0-214-68-321-203-321-71 0-139 31-204 94" id="au"/><path fill="#3d4752" d="M711-687c-7-170-35-229-188-230-74 0-147 18-220 53l-88-179c111-51 229-76 353-76 303 0 405 148 405 459V0H717v-81C651-13 566 21 461 21 236 21 81-120 81-346c0-158 85-260 254-311 103-31 245-40 376-30zM326-329c0 101 84 155 189 155 91 0 157-36 196-109v-226c-23-4-49-6-78-6-205 0-307 62-307 186" id="av"/><path fill="#3d4752" d="M1040 13c1 285-186 425-480 425-155 0-288-42-397-127l107-153c86 57 175 86 266 86 162 0 243-86 243-258v-81C700-18 607 20 498 20c-167 0-286-84-355-253-33-79-49-170-49-272 0-252 66-428 193-533 131-108 361-101 490 7v-64h263V13zM777-276v-551c-65-56-128-84-191-84-145 0-217 133-217 399 0 214 67 321 202 321 71 0 139-28 206-85" id="aw"/><g id="h"><use transform="matrix(0.0087890625,0,0,0.0087890625,0,0)" xlink:href="#as"/><use transform="matrix(0.0087890625,0,0,0.0087890625,13.482421875,0)" xlink:href="#aq"/><use transform="matrix(0.0087890625,0,0,0.0087890625,23.6162109375,0)" xlink:href="#at"/><use transform="matrix(0.0087890625,0,0,0.0087890625,34.224609375,0)" xlink:href="#au"/><use transform="matrix(0.0087890625,0,0,0.0087890625,44.8330078125,0)" xlink:href="#av"/><use transform="matrix(0.0087890625,0,0,0.0087890625,54.73828125,0)" xlink:href="#aw"/><use transform="matrix(0.0087890625,0,0,0.0087890625,65.35546875,0)" xlink:href="#aq"/></g><path fill="#3d4752" d="M431-770V0H168v-1094h263v110c156-133 232-175 396-74l-84 220c-129-52-218-25-312 68" id="ax"/><path fill="#3d4752" d="M925-326c0 213-197 348-437 348C341 22 194-16 47-93l93-183c121 69 236 103 345 103s164-42 164-127c0-41-24-75-72-100-19-10-61-25-126-44-165-49-270-109-315-179-27-41-40-94-40-158 0-210 193-335 432-335 111 0 229 34 354 103l-83 176c-101-56-191-84-271-84-107 0-161 40-161 121 0 37 23 66 70 89 16 12 285 99 327 123 105 60 161 144 161 262" id="ay"/><path fill="#3d4752" d="M578-1116c196 0 337 93 423 279 40 87 60 183 60 290 0 225-77 390-230 494-74 50-158 75-253 75-197 0-338-93-424-279-40-87-60-183-60-290 0-226 77-391 231-495 73-49 158-74 253-74zm0 194c-139 0-208 125-208 375s69 375 208 375c138 0 207-125 207-375s-69-375-207-375" id="az"/><path fill="#3d4752" d="M437 22c-177 0-283-91-283-265v-851h263v755c0 91 46 137 139 137 75 0 152-32 233-95v-797h263V0H789v-93C670-16 552 22 437 22" id="aA"/><path fill="#3d4752" d="M94-547c0-294 207-569 494-569 131 0 260 50 386 150L872-811c-96-74-188-111-277-112-163-2-225 186-225 376 0 251 82 377 246 377 81 0 168-36 260-107l103 137C862-32 733 22 593 22 292 22 94-208 94-547" id="aB"/><g id="i"><use transform="matrix(0.0087890625,0,0,0.0087890625,0,0)" xlink:href="#ax"/><use transform="matrix(0.0087890625,0,0,0.0087890625,6.8291015625,0)" xlink:href="#aq"/><use transform="matrix(0.0087890625,0,0,0.0087890625,16.962890625,0)" xlink:href="#ay"/><use transform="matrix(0.0087890625,0,0,0.0087890625,25.787109375,0)" xlink:href="#az"/><use transform="matrix(0.0087890625,0,0,0.0087890625,35.9384765625,0)" xlink:href="#aA"/><use transform="matrix(0.0087890625,0,0,0.0087890625,46.6611328125,0)" xlink:href="#ax"/><use transform="matrix(0.0087890625,0,0,0.0087890625,53.490234375,0)" xlink:href="#aB"/><use transform="matrix(0.0087890625,0,0,0.0087890625,62.0947265625,0)" xlink:href="#aq"/></g><path fill="#3d4752" d="M205-1489h426c365 0 548 153 548 458S998-573 635-573H478V0H205v-1489zm273 219v478h161c177 0 265-80 265-239s-88-239-265-239H478" id="aC"/><path fill="#3d4752" d="M1420-1116c172-1 282 89 282 264V0h-263v-754c0-92-46-138-138-138-75 0-153 30-235 90V0H803v-754c0-92-46-138-138-138-71 0-149 30-234 90V0H168v-1094h263v93c117-77 234-115 353-115 121 0 206 45 254 134 124-89 251-134 382-134" id="aD"/><path fill="#3d4752" d="M431-1094V0H168v-1094h263zm0-190H168v-296h263v296" id="aE"/><path fill="#3d4752" d="M783-1116c173 0 283 89 283 264V0H803v-754c0-92-46-138-139-138-73 0-151 30-233 91V0H168v-1094h263v93c117-77 234-115 352-115" id="aF"/><g id="j"><use transform="matrix(0.0087890625,0,0,0.0087890625,0,0)" xlink:href="#aC"/><use transform="matrix(0.0087890625,0,0,0.0087890625,10.775390625,0)" xlink:href="#aq"/><use transform="matrix(0.0087890625,0,0,0.0087890625,20.9091796875,0)" xlink:href="#ax"/><use transform="matrix(0.0087890625,0,0,0.0087890625,28.0986328125,0)" xlink:href="#aD"/><use transform="matrix(0.0087890625,0,0,0.0087890625,44.4111328125,0)" xlink:href="#aE"/><use transform="matrix(0.0087890625,0,0,0.0087890625,49.67578125,0)" xlink:href="#ay"/><use transform="matrix(0.0087890625,0,0,0.0087890625,58.5,0)" xlink:href="#ay"/><use transform="matrix(0.0087890625,0,0,0.0087890625,67.32421875,0)" xlink:href="#aE"/><use transform="matrix(0.0087890625,0,0,0.0087890625,72.5888671875,0)" xlink:href="#az"/><use transform="matrix(0.0087890625,0,0,0.0087890625,82.740234375,0)" xlink:href="#aF"/></g><path fill="#3d4752" d="M806-1530l-66 177c-158-82-260-41-259 189v70h264v199H481V0H218v-895H19v-199h199c-9-207 32-364 147-449 126-93 294-66 441 13" id="aG"/><g id="k"><use transform="matrix(0.0087890625,0,0,0.0087890625,0,0)" xlink:href="#aG"/><use transform="matrix(0.0087890625,0,0,0.0087890625,6.5126953125,0)" xlink:href="#az"/><use transform="matrix(0.0087890625,0,0,0.0087890625,16.6640625,0)" xlink:href="#ax"/><use transform="matrix(0.0087890625,0,0,0.0087890625,23.853515625,0)" xlink:href="#aD"/></g><path fill="#3d4752" d="M867-682L1342 0h-315L578-645H478V0H205v-1489h419c349 0 523 143 523 428 0 191-93 317-280 379zm-389-589v414h119c185 0 277-67 277-200 0-143-84-214-252-214H478" id="aH"/><path fill="#3d4752" d="M776-276v-550c-61-57-124-86-189-86-145 0-218 134-218 401 0 214 68 321 203 321 73 0 141-29 204-86zM94-505c0-324 124-613 416-611 109 0 201 33 277 98v-76h252V412H776V-87C709-14 620 22 509 22 243 22 94-224 94-505" id="aI"/><g id="l"><use transform="matrix(0.0087890625,0,0,0.0087890625,0,0)" xlink:href="#aH"/><use transform="matrix(0.0087890625,0,0,0.0087890625,11.794921875,0)" xlink:href="#aq"/><use transform="matrix(0.0087890625,0,0,0.0087890625,21.9287109375,0)" xlink:href="#aI"/><use transform="matrix(0.0087890625,0,0,0.0087890625,32.537109375,0)" xlink:href="#aA"/><use transform="matrix(0.0087890625,0,0,0.0087890625,43.259765625,0)" xlink:href="#aq"/><use transform="matrix(0.0087890625,0,0,0.0087890625,53.3935546875,0)" xlink:href="#ay"/><use transform="matrix(0.0087890625,0,0,0.0087890625,62.2177734375,0)" xlink:href="#ar"/></g><g id="m"><use transform="matrix(0.0087890625,0,0,0.0087890625,0,0)" xlink:href="#as"/><use transform="matrix(0.0087890625,0,0,0.0087890625,13.482421875,0)" xlink:href="#aq"/><use transform="matrix(0.0087890625,0,0,0.0087890625,23.6162109375,0)" xlink:href="#at"/><use transform="matrix(0.0087890625,0,0,0.0087890625,34.224609375,0)" xlink:href="#au"/><use transform="matrix(0.0087890625,0,0,0.0087890625,44.8330078125,0)" xlink:href="#av"/><use transform="matrix(0.0087890625,0,0,0.0087890625,54.73828125,0)" xlink:href="#aw"/><use transform="matrix(0.0087890625,0,0,0.0087890625,65.35546875,0)" xlink:href="#aq"/></g><g id="n"><use transform="matrix(0.0087890625,0,0,0.0087890625,0,0)" xlink:href="#av"/><use transform="matrix(0.0087890625,0,0,0.0087890625,9.9052734375,0)" xlink:href="#aB"/><use transform="matrix(0.0087890625,0,0,0.0087890625,18.509765625,0)" xlink:href="#aB"/><use transform="matrix(0.0087890625,0,0,0.0087890625,27.1142578125,0)" xlink:href="#aq"/><use transform="matrix(0.0087890625,0,0,0.0087890625,37.248046875,0)" xlink:href="#ay"/><use transform="matrix(0.0087890625,0,0,0.0087890625,46.072265625,0)" xlink:href="#ay"/></g><path fill="#3d4752" d="M484-464v229L105-518v-204l379-283v227L271-620" id="aJ"/><path fill="#3d4752" d="M784-1116c178 0 282 88 282 264V0H803v-754c0-92-46-138-138-138-74 0-152 32-234 95V0H168v-1580h263v579c117-77 234-115 353-115" id="aK"/><g id="o"><use transform="matrix(0.0087890625,0,0,0.0087890625,0,0)" xlink:href="#aJ"/><use transform="matrix(0.0087890625,0,0,0.0087890625,5.466796875,0)" xlink:href="#aJ"/><use transform="matrix(0.0087890625,0,0,0.0087890625,10.93359375,0)" xlink:href="#aK"/><use transform="matrix(0.0087890625,0,0,0.0087890625,21.65625,0)" xlink:href="#ar"/><use transform="matrix(0.0087890625,0,0,0.0087890625,28.7578125,0)" xlink:href="#ar"/><use transform="matrix(0.0087890625,0,0,0.0087890625,35.859375,0)" xlink:href="#au"/></g><path fill="#3d4752" d="M94-505c0-321 128-611 419-611 101 0 188 30 263 91v-555h263V-1H787v-91C712-16 620 22 509 22c-171 0-293-85-364-254-34-81-51-172-51-273zm682 228v-551c-64-56-127-84-189-84-145 0-218 134-218 401 0 213 68 320 203 320 69 0 137-29 204-86" id="aL"/><path fill="#3d4752" d="M517-518L138-235v-229l214-156-214-158v-227l379 283v204" id="aM"/><g id="p"><use transform="matrix(0.0087890625,0,0,0.0087890625,0,0)" xlink:href="#ax"/><use transform="matrix(0.0087890625,0,0,0.0087890625,6.8291015625,0)" xlink:href="#aq"/><use transform="matrix(0.0087890625,0,0,0.0087890625,16.962890625,0)" xlink:href="#aL"/><use transform="matrix(0.0087890625,0,0,0.0087890625,27.5712890625,0)" xlink:href="#aE"/><use transform="matrix(0.0087890625,0,0,0.0087890625,32.8359375,0)" xlink:href="#ax"/><use transform="matrix(0.0087890625,0,0,0.0087890625,39.6650390625,0)" xlink:href="#aq"/><use transform="matrix(0.0087890625,0,0,0.0087890625,49.798828125,0)" xlink:href="#aB"/><use transform="matrix(0.0087890625,0,0,0.0087890625,58.81640625,0)" xlink:href="#ar"/><use transform="matrix(0.0087890625,0,0,0.0087890625,65.91796875,0)" xlink:href="#aM"/><use transform="matrix(0.0087890625,0,0,0.0087890625,71.384765625,0)" xlink:href="#aM"/></g><path fill="#3d4752" d="M491-632h326l-163-487zM1028 0L887-418H421L279 0H11l527-1489h248L1312 0h-284" id="aN"/><path fill="#3d4752" d="M913-199V0H57v-145l540-750H116v-199h789v167L377-199h536" id="aO"/><g id="q"><use transform="matrix(0.0087890625,0,0,0.0087890625,0,0)" xlink:href="#aN"/><use transform="matrix(0.0087890625,0,0,0.0087890625,11.9091796875,0)" xlink:href="#aA"/><use transform="matrix(0.0087890625,0,0,0.0087890625,22.6318359375,0)" xlink:href="#ar"/><use transform="matrix(0.0087890625,0,0,0.0087890625,29.7333984375,0)" xlink:href="#aK"/><use transform="matrix(0.0087890625,0,0,0.0087890625,40.4560546875,0)" xlink:href="#az"/><use transform="matrix(0.0087890625,0,0,0.0087890625,50.607421875,0)" xlink:href="#ax"/><use transform="matrix(0.0087890625,0,0,0.0087890625,57.796875,0)" xlink:href="#aE"/><use transform="matrix(0.0087890625,0,0,0.0087890625,63.0615234375,0)" xlink:href="#aO"/><use transform="matrix(0.0087890625,0,0,0.0087890625,71.666015625,0)" xlink:href="#aq"/></g><path fill="#3d4752" d="M718 23c-304 0-533-125-532-410v-1102h272v1066c0 151 87 227 260 227 174 0 261-76 261-227v-1066h272v1102c8 267-231 410-533 410" id="aP"/><g id="r"><use transform="matrix(0.0087890625,0,0,0.0087890625,0,0)" xlink:href="#aP"/><use transform="matrix(0.0087890625,0,0,0.0087890625,12.6298828125,0)" xlink:href="#ay"/><use transform="matrix(0.0087890625,0,0,0.0087890625,21.4541015625,0)" xlink:href="#aq"/><use transform="matrix(0.0087890625,0,0,0.0087890625,31.587890625,0)" xlink:href="#ax"/></g><g id="s"><use transform="matrix(0.0087890625,0,0,0.0087890625,0,0)" xlink:href="#au"/><use transform="matrix(0.0087890625,0,0,0.0087890625,10.6083984375,0)" xlink:href="#aq"/><use transform="matrix(0.0087890625,0,0,0.0087890625,20.7421875,0)" xlink:href="#ax"/><use transform="matrix(0.0087890625,0,0,0.0087890625,27.931640625,0)" xlink:href="#aD"/><use transform="matrix(0.0087890625,0,0,0.0087890625,44.244140625,0)" xlink:href="#aE"/><use transform="matrix(0.0087890625,0,0,0.0087890625,49.5087890625,0)" xlink:href="#ay"/><use transform="matrix(0.0087890625,0,0,0.0087890625,58.3330078125,0)" xlink:href="#ay"/><use transform="matrix(0.0087890625,0,0,0.0087890625,67.1572265625,0)" xlink:href="#aE"/><use transform="matrix(0.0087890625,0,0,0.0087890625,72.421875,0)" xlink:href="#az"/><use transform="matrix(0.0087890625,0,0,0.0087890625,82.5732421875,0)" xlink:href="#aF"/></g><g id="t"><use transform="matrix(0.0087890625,0,0,0.0087890625,0,0)" xlink:href="#aC"/><use transform="matrix(0.0087890625,0,0,0.0087890625,11.1357421875,0)" xlink:href="#ax"/><use transform="matrix(0.0087890625,0,0,0.0087890625,17.96484375,0)" xlink:href="#az"/><use transform="matrix(0.0087890625,0,0,0.0087890625,28.1162109375,0)" xlink:href="#aB"/><use transform="matrix(0.0087890625,0,0,0.0087890625,36.720703125,0)" xlink:href="#aq"/><use transform="matrix(0.0087890625,0,0,0.0087890625,46.8544921875,0)" xlink:href="#ay"/><use transform="matrix(0.0087890625,0,0,0.0087890625,55.6787109375,0)" xlink:href="#ay"/></g><path fill="#3d4752" d="M1178 0L926-761 675 0H408L27-1489h279L561-392l260-788h212l259 790 276-1099h257L1446 0h-268" id="aQ"/><g id="u"><use transform="matrix(0.0087890625,0,0,0.0087890625,0,0)" xlink:href="#aQ"/><use transform="matrix(0.0087890625,0,0,0.0087890625,15.71484375,0)" xlink:href="#aq"/><use transform="matrix(0.0087890625,0,0,0.0087890625,25.8486328125,0)" xlink:href="#at"/></g><g id="v"><use transform="matrix(0.0087890625,0,0,0.0087890625,0,0)" xlink:href="#av"/><use transform="matrix(0.0087890625,0,0,0.0087890625,9.9052734375,0)" xlink:href="#aA"/><use transform="matrix(0.0087890625,0,0,0.0087890625,20.6279296875,0)" xlink:href="#ar"/><use transform="matrix(0.0087890625,0,0,0.0087890625,27.7294921875,0)" xlink:href="#aK"/></g><g id="w"><use transform="matrix(0.0087890625,0,0,0.0087890625,0,0)" xlink:href="#aB"/><use transform="matrix(0.0087890625,0,0,0.0087890625,8.6044921875,0)" xlink:href="#az"/><use transform="matrix(0.0087890625,0,0,0.0087890625,18.755859375,0)" xlink:href="#aL"/><use transform="matrix(0.0087890625,0,0,0.0087890625,29.3642578125,0)" xlink:href="#aq"/></g><g id="y"><use transform="matrix(0.0087890625,0,0,0.0087890625,0,0)" xlink:href="#au"/><use transform="matrix(0.0087890625,0,0,0.0087890625,10.6083984375,0)" xlink:href="#ax"/><use transform="matrix(0.0087890625,0,0,0.0087890625,17.4375,0)" xlink:href="#az"/><use transform="matrix(0.0087890625,0,0,0.0087890625,27.5888671875,0)" xlink:href="#ar"/><use transform="matrix(0.0087890625,0,0,0.0087890625,34.6904296875,0)" xlink:href="#aq"/><use transform="matrix(0.0087890625,0,0,0.0087890625,44.82421875,0)" xlink:href="#aB"/><use transform="matrix(0.0087890625,0,0,0.0087890625,53.841796875,0)" xlink:href="#ar"/><use transform="matrix(0.0087890625,0,0,0.0087890625,60.943359375,0)" xlink:href="#aq"/><use transform="matrix(0.0087890625,0,0,0.0087890625,71.0771484375,0)" xlink:href="#aL"/></g><g id="z"><use transform="matrix(0.0087890625,0,0,0.0087890625,0,0)" xlink:href="#aN"/><use transform="matrix(0.0087890625,0,0,0.0087890625,11.9091796875,0)" xlink:href="#aB"/><use transform="matrix(0.0087890625,0,0,0.0087890625,20.513671875,0)" xlink:href="#aB"/><use transform="matrix(0.0087890625,0,0,0.0087890625,29.1181640625,0)" xlink:href="#aq"/><use transform="matrix(0.0087890625,0,0,0.0087890625,39.251953125,0)" xlink:href="#ay"/><use transform="matrix(0.0087890625,0,0,0.0087890625,48.076171875,0)" xlink:href="#ay"/></g><path fill="#3d4752" d="M1152 0H835L431-519V0H168v-1580h263v869l332-383h308L654-620" id="aR"/><g id="A"><use transform="matrix(0.0087890625,0,0,0.0087890625,0,0)" xlink:href="#ar"/><use transform="matrix(0.0087890625,0,0,0.0087890625,7.1015625,0)" xlink:href="#az"/><use transform="matrix(0.0087890625,0,0,0.0087890625,17.2529296875,0)" xlink:href="#aR"/><use transform="matrix(0.0087890625,0,0,0.0087890625,26.8330078125,0)" xlink:href="#aq"/><use transform="matrix(0.0087890625,0,0,0.0087890625,36.966796875,0)" xlink:href="#aF"/></g><g id="B"><use transform="matrix(0.0087890625,0,0,0.0087890625,0,0)" xlink:href="#aA"/><use transform="matrix(0.0087890625,0,0,0.0087890625,10.72265625,0)" xlink:href="#ay"/><use transform="matrix(0.0087890625,0,0,0.0087890625,19.546875,0)" xlink:href="#aq"/><use transform="matrix(0.0087890625,0,0,0.0087890625,29.6806640625,0)" xlink:href="#ax"/></g><g id="C"><use transform="matrix(0.0087890625,0,0,0.0087890625,0,0)" xlink:href="#au"/><use transform="matrix(0.0087890625,0,0,0.0087890625,10.6083984375,0)" xlink:href="#ax"/><use transform="matrix(0.0087890625,0,0,0.0087890625,17.4375,0)" xlink:href="#az"/><use transform="matrix(0.0087890625,0,0,0.0087890625,27.5888671875,0)" xlink:href="#ar"/><use transform="matrix(0.0087890625,0,0,0.0087890625,34.6904296875,0)" xlink:href="#aq"/><use transform="matrix(0.0087890625,0,0,0.0087890625,44.82421875,0)" xlink:href="#aB"/><use transform="matrix(0.0087890625,0,0,0.0087890625,53.841796875,0)" xlink:href="#ar"/><use transform="matrix(0.0087890625,0,0,0.0087890625,60.943359375,0)" xlink:href="#aq"/><use transform="matrix(0.0087890625,0,0,0.0087890625,71.0771484375,0)" xlink:href="#aL"/></g><g id="D"><use transform="matrix(0.0087890625,0,0,0.0087890625,0,0)" xlink:href="#ax"/><use transform="matrix(0.0087890625,0,0,0.0087890625,6.8291015625,0)" xlink:href="#aq"/><use transform="matrix(0.0087890625,0,0,0.0087890625,16.962890625,0)" xlink:href="#ay"/><use transform="matrix(0.0087890625,0,0,0.0087890625,25.787109375,0)" xlink:href="#az"/><use transform="matrix(0.0087890625,0,0,0.0087890625,35.9384765625,0)" xlink:href="#aA"/><use transform="matrix(0.0087890625,0,0,0.0087890625,46.6611328125,0)" xlink:href="#ax"/><use transform="matrix(0.0087890625,0,0,0.0087890625,53.490234375,0)" xlink:href="#aB"/><use transform="matrix(0.0087890625,0,0,0.0087890625,62.0947265625,0)" xlink:href="#aq"/></g><g id="E"><use transform="matrix(0.0087890625,0,0,0.0087890625,0,0)" xlink:href="#ax"/><use transform="matrix(0.0087890625,0,0,0.0087890625,6.8291015625,0)" xlink:href="#aq"/><use transform="matrix(0.0087890625,0,0,0.0087890625,16.962890625,0)" xlink:href="#ay"/><use transform="matrix(0.0087890625,0,0,0.0087890625,25.787109375,0)" xlink:href="#az"/><use transform="matrix(0.0087890625,0,0,0.0087890625,35.9384765625,0)" xlink:href="#aA"/><use transform="matrix(0.0087890625,0,0,0.0087890625,46.6611328125,0)" xlink:href="#ax"/><use transform="matrix(0.0087890625,0,0,0.0087890625,53.490234375,0)" xlink:href="#aB"/><use transform="matrix(0.0087890625,0,0,0.0087890625,62.0947265625,0)" xlink:href="#aq"/></g><g id="F"><use transform="matrix(0.0087890625,0,0,0.0087890625,0,0)" xlink:href="#aF"/><use transform="matrix(0.0087890625,0,0,0.0087890625,10.72265625,0)" xlink:href="#az"/><use transform="matrix(0.0087890625,0,0,0.0087890625,20.8740234375,0)" xlink:href="#ar"/></g><path fill="#3d4752" d="M452 0L25-1094h272l252 709 263-709h249L634 0H452" id="aS"/><path fill="#3d4752" d="M446 22C216 22 155-90 155-336v-1244h263v1196c0 75 6 126 18 153 27 62 110 61 177 31l67 172C603 5 525 22 446 22" id="aT"/><g id="G"><use transform="matrix(0.0087890625,0,0,0.0087890625,0,0)" xlink:href="#av"/><use transform="matrix(0.0087890625,0,0,0.0087890625,9.9052734375,0)" xlink:href="#aS"/><use transform="matrix(0.0087890625,0,0,0.0087890625,19.08984375,0)" xlink:href="#av"/><use transform="matrix(0.0087890625,0,0,0.0087890625,28.9951171875,0)" xlink:href="#aE"/><use transform="matrix(0.0087890625,0,0,0.0087890625,34.259765625,0)" xlink:href="#aT"/><use transform="matrix(0.0087890625,0,0,0.0087890625,39.955078125,0)" xlink:href="#av"/><use transform="matrix(0.0087890625,0,0,0.0087890625,49.8603515625,0)" xlink:href="#at"/><use transform="matrix(0.0087890625,0,0,0.0087890625,60.46875,0)" xlink:href="#aT"/><use transform="matrix(0.0087890625,0,0,0.0087890625,66.1640625,0)" xlink:href="#aq"/></g><g id="H"><use transform="matrix(0.0087890625,0,0,0.0087890625,0,0)" xlink:href="#ax"/><use transform="matrix(0.0087890625,0,0,0.0087890625,6.8291015625,0)" xlink:href="#aq"/><use transform="matrix(0.0087890625,0,0,0.0087890625,16.962890625,0)" xlink:href="#ay"/><use transform="matrix(0.0087890625,0,0,0.0087890625,25.787109375,0)" xlink:href="#az"/><use transform="matrix(0.0087890625,0,0,0.0087890625,35.9384765625,0)" xlink:href="#aA"/><use transform="matrix(0.0087890625,0,0,0.0087890625,46.6611328125,0)" xlink:href="#ax"/><use transform="matrix(0.0087890625,0,0,0.0087890625,53.490234375,0)" xlink:href="#aB"/><use transform="matrix(0.0087890625,0,0,0.0087890625,62.0947265625,0)" xlink:href="#aq"/></g><path fill="#3d4752" d="M205 0v-1489h295l553 1011v-1011h267V0h-290L472-1024V0H205" id="aU"/><g id="I"><use transform="matrix(0.0087890625,0,0,0.0087890625,0,0)" xlink:href="#aU"/><use transform="matrix(0.0087890625,0,0,0.0087890625,13.4033203125,0)" xlink:href="#az"/></g><g id="J"><use transform="matrix(0.0087890625,0,0,0.0087890625,0,0)" xlink:href="#av"/><use transform="matrix(0.0087890625,0,0,0.0087890625,9.9052734375,0)" xlink:href="#aA"/><use transform="matrix(0.0087890625,0,0,0.0087890625,20.6279296875,0)" xlink:href="#ar"/><use transform="matrix(0.0087890625,0,0,0.0087890625,27.7294921875,0)" xlink:href="#aK"/><use transform="matrix(0.0087890625,0,0,0.0087890625,38.4521484375,0)" xlink:href="#az"/><use transform="matrix(0.0087890625,0,0,0.0087890625,48.603515625,0)" xlink:href="#ax"/><use transform="matrix(0.0087890625,0,0,0.0087890625,55.79296875,0)" xlink:href="#aE"/><use transform="matrix(0.0087890625,0,0,0.0087890625,61.0576171875,0)" xlink:href="#aO"/><use transform="matrix(0.0087890625,0,0,0.0087890625,69.662109375,0)" xlink:href="#av"/><use transform="matrix(0.0087890625,0,0,0.0087890625,79.5673828125,0)" xlink:href="#ar"/><use transform="matrix(0.0087890625,0,0,0.0087890625,86.6689453125,0)" xlink:href="#aE"/><use transform="matrix(0.0087890625,0,0,0.0087890625,91.93359375,0)" xlink:href="#az"/><use transform="matrix(0.0087890625,0,0,0.0087890625,102.0849609375,0)" xlink:href="#aF"/></g><g id="K"><use transform="matrix(0.013020833333333334,0,0,0.013020833333333334,0,0)" xlink:href="#W"/><use transform="matrix(0.013020833333333334,0,0,0.013020833333333334,17.3828125,0)" xlink:href="#Y"/><use transform="matrix(0.013020833333333334,0,0,0.013020833333333334,32.421875,0)" xlink:href="#T"/></g><g id="L"><use transform="matrix(0.013020833333333334,0,0,0.013020833333333334,0,0)" xlink:href="#aj"/><use transform="matrix(0.013020833333333334,0,0,0.013020833333333334,15.885416666666668,0)" xlink:href="#aa"/><use transform="matrix(0.013020833333333334,0,0,0.013020833333333334,28.958333333333336,0)" xlink:href="#U"/><use transform="matrix(0.013020833333333334,0,0,0.013020833333333334,43.97135416666667,0)" xlink:href="#X"/></g><g id="M"><use transform="matrix(0.013020833333333334,0,0,0.013020833333333334,0,0)" xlink:href="#ag"/><use transform="matrix(0.013020833333333334,0,0,0.013020833333333334,14.674479166666668,0)" xlink:href="#aj"/><use transform="matrix(0.013020833333333334,0,0,0.013020833333333334,30.559895833333336,0)" xlink:href="#ah"/><use transform="matrix(0.013020833333333334,0,0,0.013020833333333334,41.08072916666667,0)" xlink:href="#ak"/><use transform="matrix(0.013020833333333334,0,0,0.013020833333333334,56.96614583333335,0)" xlink:href="#U"/><use transform="matrix(0.013020833333333334,0,0,0.013020833333333334,71.97916666666667,0)" xlink:href="#ai"/><use transform="matrix(0.013020833333333334,0,0,0.013020833333333334,87.86458333333334,0)" xlink:href="#ah"/><use transform="matrix(0.013020833333333334,0,0,0.013020833333333334,98.38541666666667,0)" xlink:href="#ae"/><use transform="matrix(0.013020833333333334,0,0,0.013020833333333334,106.18489583333334,0)" xlink:href="#af"/><use transform="matrix(0.013020833333333334,0,0,0.013020833333333334,118.93229166666667,0)" xlink:href="#ag"/><use transform="matrix(0.013020833333333334,0,0,0.013020833333333334,133.60677083333334,0)" xlink:href="#ah"/><use transform="matrix(0.013020833333333334,0,0,0.013020833333333334,144.12760416666669,0)" xlink:href="#ae"/><use transform="matrix(0.013020833333333334,0,0,0.013020833333333334,151.92708333333334,0)" xlink:href="#Y"/><use transform="matrix(0.013020833333333334,0,0,0.013020833333333334,166.96614583333334,0)" xlink:href="#ai"/></g><g id="N"><use transform="matrix(0.013020833333333334,0,0,0.013020833333333334,0,0)" xlink:href="#ag"/><use transform="matrix(0.013020833333333334,0,0,0.013020833333333334,14.674479166666668,0)" xlink:href="#ad"/><use transform="matrix(0.013020833333333334,0,0,0.013020833333333334,23.111979166666668,0)" xlink:href="#ah"/></g><path fill="#3d4752" d="M796 469H312v-2004h484v176H574V294h222v175" id="aV"/><g id="P"><use transform="matrix(0.008680555555555556,0,0,0.008680555555555556,0,0)" xlink:href="#aV"/><use transform="matrix(0.008680555555555556,0,0,0.008680555555555556,8.046875,0)" xlink:href="#au"/><use transform="matrix(0.008680555555555556,0,0,0.008680555555555556,18.524305555555557,0)" xlink:href="#aq"/><use transform="matrix(0.008680555555555556,0,0,0.008680555555555556,28.53298611111111,0)" xlink:href="#ax"/><use transform="matrix(0.008680555555555556,0,0,0.008680555555555556,35.63368055555556,0)" xlink:href="#aD"/><use transform="matrix(0.008680555555555556,0,0,0.008680555555555556,51.74479166666667,0)" xlink:href="#aE"/><use transform="matrix(0.008680555555555556,0,0,0.008680555555555556,56.94444444444445,0)" xlink:href="#ay"/><use transform="matrix(0.008680555555555556,0,0,0.008680555555555556,65.65972222222223,0)" xlink:href="#ay"/><use transform="matrix(0.008680555555555556,0,0,0.008680555555555556,74.375,0)" xlink:href="#aE"/><use transform="matrix(0.008680555555555556,0,0,0.008680555555555556,79.57465277777777,0)" xlink:href="#az"/><use transform="matrix(0.008680555555555556,0,0,0.008680555555555556,89.60069444444444,0)" xlink:href="#aF"/></g><path fill="#3d4752" d="M131 469V294h222v-1653H131v-176h483V469H131" id="aW"/><g id="Q"><use transform="matrix(0.008680555555555556,0,0,0.008680555555555556,0,0)" xlink:href="#aw"/><use transform="matrix(0.008680555555555556,0,0,0.008680555555555556,10.48611111111111,0)" xlink:href="#ax"/><use transform="matrix(0.008680555555555556,0,0,0.008680555555555556,16.84027777777778,0)" xlink:href="#av"/><use transform="matrix(0.008680555555555556,0,0,0.008680555555555556,26.62326388888889,0)" xlink:href="#aF"/><use transform="matrix(0.008680555555555556,0,0,0.008680555555555556,37.21354166666667,0)" xlink:href="#ar"/><use transform="matrix(0.008680555555555556,0,0,0.008680555555555556,44.22743055555556,0)" xlink:href="#aq"/><use transform="matrix(0.008680555555555556,0,0,0.008680555555555556,54.236111111111114,0)" xlink:href="#aL"/><use transform="matrix(0.008680555555555556,0,0,0.008680555555555556,64.71354166666667,0)" xlink:href="#aW"/></g><path fill="#3d4752" d="M1064-219V0H205v-1489h859v219H478v389h485v219H478v443h586" id="aX"/><g id="R"><use transform="matrix(0.008680555555555556,0,0,0.008680555555555556,0,0)" xlink:href="#aV"/><use transform="matrix(0.008680555555555556,0,0,0.008680555555555556,8.046875,0)" xlink:href="#aX"/><use transform="matrix(0.008680555555555556,0,0,0.008680555555555556,18.177083333333336,0)" xlink:href="#aT"/><use transform="matrix(0.008680555555555556,0,0,0.008680555555555556,24.088541666666668,0)" xlink:href="#ay"/><use transform="matrix(0.008680555555555556,0,0,0.008680555555555556,32.80381944444444,0)" xlink:href="#aq"/><use transform="matrix(0.008680555555555556,0,0,0.008680555555555556,42.8125,0)" xlink:href="#aW"/></g></defs></g></svg>